<?xml version="1.0" encoding="UTF-8" standalone="no"?>
<!-- Created with Inkscape (http://www.inkscape.org/) -->

<svg
   xmlns:dc="http://purl.org/dc/elements/1.1/"
   xmlns:cc="http://creativecommons.org/ns#"
   xmlns:rdf="http://www.w3.org/1999/02/22-rdf-syntax-ns#"
   xmlns:svg="http://www.w3.org/2000/svg"
   xmlns="http://www.w3.org/2000/svg"
   xmlns:sodipodi="http://sodipodi.sourceforge.net/DTD/sodipodi-0.dtd"
   xmlns:inkscape="http://www.inkscape.org/namespaces/inkscape"
   version="1.1"
   id="svg2"
   xml:space="preserve"
   width="200.4435"
   height="168.17207"
   viewBox="0 0 200.4435 168.17207"
   sodipodi:docname="Halleffekt_.svg"
   inkscape:version="0.92.2 2405546, 2018-03-11"><metadata
     id="metadata8"><rdf:RDF><cc:Work
         rdf:about=""><dc:format>image/svg+xml</dc:format><dc:type
           rdf:resource="http://purl.org/dc/dcmitype/StillImage" /><dc:title></dc:title></cc:Work></rdf:RDF></metadata><defs
     id="defs6"><clipPath
       clipPathUnits="userSpaceOnUse"
       id="clipPath22"><path
         d="m 303.6,35.64 h 0.24 v 13.68 h -0.24 z"
         id="path20"
         inkscape:connector-curvature="0" /></clipPath><clipPath
       clipPathUnits="userSpaceOnUse"
       id="clipPath302"><path
         d="m 156.96,326.76 h 2.88 v 1.2 h -2.88 z"
         id="path300"
         inkscape:connector-curvature="0" /></clipPath><clipPath
       clipPathUnits="userSpaceOnUse"
       id="clipPath318"><path
         d="m 168.96,326.28 h 1.92 v 1.68 h -1.92 z"
         id="path316"
         inkscape:connector-curvature="0" /></clipPath><clipPath
       clipPathUnits="userSpaceOnUse"
       id="clipPath328"><path
         d="m 169.2,326.76 h 1.92 v 1.2 h -1.92 z"
         id="path326"
         inkscape:connector-curvature="0" /></clipPath></defs><sodipodi:namedview
     pagecolor="#ffffff"
     bordercolor="#666666"
     borderopacity="1"
     objecttolerance="10"
     gridtolerance="10"
     guidetolerance="10"
     inkscape:pageopacity="0"
     inkscape:pageshadow="2"
     inkscape:window-width="3084"
     inkscape:window-height="2045"
     id="namedview4"
     showgrid="false"
     fit-margin-top="0"
     fit-margin-left="0"
     fit-margin-right="0"
     fit-margin-bottom="0"
     inkscape:zoom="1.1891486"
     inkscape:cx="222.21691"
     inkscape:cy="228.28576"
     inkscape:window-x="0"
     inkscape:window-y="0"
     inkscape:window-maximized="0"
     inkscape:current-layer="g10" /><g
     id="g10"
     inkscape:groupmode="layer"
     inkscape:label="Halleffekt_"
     transform="matrix(1.3333333,0,0,-1.3333333,-112.99877,440.95996)"><g
       id="g16"><g
         id="g18"
         clip-path="url(#clipPath22)" /></g><path
       d="m 100.56,218.04 v 0 m 3.36,0 v 0 m 2.88,0 v 0 m 2.64,0 v 0 m 2.16,0 v 0 m 2.16,0 v 0 m 13.2,0 v 0 m 7.68,0 v 0 m 5.52,0 v 0 m 4.32,0 v 0 m 3.36,0 v 0 m 3.12,0 v 0 m 2.64,0 v 0 m 2.16,0 v 0 m 1.92,0 v 0 m 13.2,0 v 0 m 7.92,0 v 0 m 5.52,0 v 0 m 4.32,0 v 0 m 3.36,0 v 0 m 2.88,0 v 0 m 2.64,0 v 0 m 2.16,0 v 0 m 2.16,0 v 0 m 13.2,0 v 0 m 7.68,0 v 0 m 5.52,0 v 0 m 4.32,0 v 0 m -132,0 h 132 m -132,6.24 v 0 m 0,8.64 v 0 m 0,6.24 v 0 m 0,4.8 v 0 m 0,3.84 v 0 m 0,3.36 v 0 m 0,2.88 v 0 m 0,2.64 v 0 m 0,2.16 v 0 m 0,14.88 v 0 m 0,8.64 v 0 m 0,6.24 v 0 m 0,4.8 v 0 m 0,3.84 v 0 m 0,3.36 v 0 m 0,2.88 v 0 m 0,2.64 v 0 m 0,2.16 v 0 m 0,14.88 v 0 m 0,-105.12 v 109.92"
       style="fill:none;stroke:#000000;stroke-width:0.82999998;stroke-linecap:round;stroke-linejoin:round;stroke-miterlimit:10;stroke-dasharray:none;stroke-opacity:1"
       id="path294"
       inkscape:connector-curvature="0" /><g
       id="g296"><g
         id="g298"
         clip-path="url(#clipPath302)"><path
           d="m 157.68,329.64 1.2,-1.92"
           style="fill:none;stroke:#000000;stroke-width:0.57499999;stroke-linecap:round;stroke-linejoin:round;stroke-miterlimit:10;stroke-dasharray:none;stroke-opacity:1"
           id="path304"
           inkscape:connector-curvature="0" /></g></g><path
       d="m 160.56,324.84 0.72,-0.96 0.48,-1.2 m 1.68,-2.88 0.72,-0.96 0.48,-1.2 m 1.92,-2.88 v -0.24 l 1.2,-1.68 m 1.68,-2.88 0.48,-0.96 0.72,-1.2 m 1.68,-2.88 0.48,-0.72 0.72,-1.2 m 1.68,-2.88 0.72,-1.2 0.48,-0.96 m 1.68,-2.88 0.48,-0.96 0.72,-0.96 0.24,-0.24 m 1.68,-2.88 0.48,-0.72 0.48,-0.96 0.24,-0.24 m 1.68,-2.88 V 285 l 0.48,-0.72 0.48,-0.96 0.24,-0.24 m 1.68,-2.88 0.24,-0.48 0.96,-1.44 v 0 m 1.68,-2.88 v -0.24 l 0.48,-0.48 0.24,-0.48 0.24,-0.72 0.24,-0.24 m 1.92,-2.88 v 0 l 0.24,-0.48 0.24,-0.72 0.48,-0.96 m 1.92,-2.88 v -0.24 l 0.24,-0.48 0.48,-0.24 0.24,-0.48 v -0.48 h 0.24 m 1.68,-2.88 v -0.24 l 0.24,-0.48 0.24,-0.24 0.24,-0.48 0.24,-0.24 0.24,-0.48 m 1.68,-2.88 v 0 l 0.24,-0.48 0.48,-0.48 0.24,-0.48 v -0.24 l 0.24,-0.24 v 0 m 1.68,-2.88 v 0 l 0.24,-0.24 0.24,-0.48 v -0.24 l 0.48,-0.48 V 249 l 0.24,-0.24 v -0.24 m 1.92,-2.88 v -0.48 l 0.48,-0.48 v -0.24 l 0.24,-0.24 v 0 l 0.24,-0.24 v -0.24 l 0.24,-0.24 m 1.68,-2.88 v -0.24 h 0.24 v -0.24 l 0.24,-0.24 v -0.24 l 0.24,-0.24 v -0.24 l 0.24,-0.24 v 0 l 0.24,-0.24 m 1.68,-2.88 v 0 l 0.24,-0.24 v -0.48 h 0.24 v -0.24 l 0.24,-0.24 v 0 l 0.24,-0.24 v -0.24 l 0.24,-0.24 v -0.24"
       style="fill:none;stroke:#000000;stroke-width:0.57499999;stroke-linecap:round;stroke-linejoin:round;stroke-miterlimit:10;stroke-dasharray:none;stroke-opacity:1"
       id="path306"
       inkscape:connector-curvature="0" /><path
       d="m 113.76,232.92 13.2,22.32 7.68,12.96 5.52,8.88 4.32,6.72 3.36,5.28 3.12,4.08 2.64,3.36 2.16,2.4 1.92,1.68 1.92,1.44 1.68,0.72 1.44,0.48 1.44,0.24 h 1.44 l 1.2,-0.48 0.96,-0.24 1.2,-0.72 0.96,-0.72 0.96,-0.48 0.96,-0.96 0.96,-0.72 0.96,-0.96 0.72,-0.96 0.72,-0.72 2.16,-2.88 0.72,-0.72 0.72,-0.96 0.48,-0.72 0.72,-0.96 0.48,-0.96 0.72,-0.72 0.48,-0.72 0.48,-0.96 0.96,-1.44 0.72,-0.72 1.44,-2.16 0.24,-0.72 1.44,-2.16 0.24,-0.72 0.48,-0.48 0.96,-1.44 0.48,-0.96 0.48,-0.72 0.24,-0.72 0.48,-0.48 0.24,-0.48 0.48,-0.48 0.24,-0.72 0.48,-0.48 0.72,-1.44 0.48,-0.72 0.48,-0.96 0.48,-0.48 0.72,-1.44 0.24,-0.24 0.24,-0.48 0.48,-0.48 0.72,-1.44 0.24,-0.24 0.72,-1.44 0.24,-0.24 0.24,-0.48 0.24,-0.24 0.48,-0.96 0.24,-0.24 0.24,-0.48 0.24,-0.24 v -0.48 l 0.24,-0.24 0.24,-0.48 0.24,-0.24 0.24,-0.48 0.24,-0.24 0.24,-0.48 0.24,-0.24 v -0.24 l 0.24,-0.48 0.24,-0.24 0.24,-0.48 0.24,-0.24 V 255 l 0.24,-0.48 0.48,-0.48 0.24,-0.48 v -0.24 l 0.72,-0.72 v -0.48 l 0.48,-0.48 v -0.24 l 0.24,-0.24 0.24,-0.48 v -0.24 l 0.72,-0.72 v -0.24 l 0.24,-0.24 v -0.48 l 0.48,-0.48 v -0.24 l 0.48,-0.48 v -0.24 l 0.48,-0.48 v -0.24 l 0.24,-0.24 v -0.24 l 0.48,-0.48 v -0.24 l 0.24,-0.24 v -0.24 l 0.24,-0.24 v -0.24 l 0.48,-0.48 v -0.24 l 0.24,-0.24 v -0.24 l 0.48,-0.48 v -0.24 l 0.24,-0.24 v -0.24 l 0.24,-0.24 v -0.24 l 0.72,-0.72 v -0.48 l 0.48,-0.48 v -0.24 h 0.24 v -0.48 l 0.24,-0.24 v -0.24 h 0.24 l 0.24,-0.24 v -0.48 l 0.48,-0.48 v -0.24 l 0.48,-0.48 v -0.48 h 0.24 v -0.24 l 0.24,-0.24 v -0.24 h 0.24 v -0.24 l 0.24,-0.24 v -0.24 l 0.24,-0.24 v -0.24 h 0.24 v -0.48 h 0.24 v -0.24 l 0.24,-0.24 v -0.24 l 0.24,-0.24"
       style="fill:none;stroke:#000000;stroke-width:1.40400004;stroke-linecap:round;stroke-linejoin:round;stroke-miterlimit:10;stroke-dasharray:none;stroke-opacity:1"
       id="path308"
       inkscape:connector-curvature="0" /><path
       d="m 113.76,232.92 0.48,0.72 m 0.72,1.44 0.48,0.96 m 0.96,1.44 0.48,0.72 m 0.72,1.44 0.48,0.72 m 0.96,1.68 0.48,0.72 m 0.96,1.44 0.24,0.72 m 0.96,1.44 0.48,0.72 m 0.96,1.68 0.48,0.72 m 0.72,1.44 0.48,0.72 m 0.96,1.44 0.48,0.96 m 0.72,1.44 0.48,0.72 m 0.96,1.44 0.48,0.72 m 0.72,1.44 0.48,0.96 m 0.96,1.44 0.48,0.72 m 0.96,1.44 0.24,0.72 m 0.96,1.68 0.48,0.72 m 0.96,1.44 0.48,0.72 m 0.72,1.44 0.48,0.72 m 0.96,1.68 0.48,0.72 m 0.72,1.44 0.48,0.72 m 0.96,1.44 0.48,0.96 m 0.72,1.44 0.48,0.72 m 0.96,1.44 0.48,0.72 m 0.72,1.44 0.24,0.24 0.24,0.72 m 0.96,1.44 0.48,0.72 m 0.72,1.44 0.48,0.72 m 0.96,1.44 0.48,0.96 m 0.96,1.44 0.48,0.72 m 0.72,1.44 0.48,0.72 m 0.96,1.68 0.48,0.72 m 0.72,1.44 0.48,0.72 m 0.96,1.44 0.48,0.96 m 0.72,1.44 0.48,0.72 m 0.96,1.44 v 0 l 0.48,0.72 m 0.96,1.44 0.48,0.96 m 0.72,1.44 0.48,0.72 m 0.96,1.44 0.48,0.72 m 0.72,1.44 0.48,0.96 m 0.72,1.44 0.72,0.72 m 0.72,1.44 0.48,0.72 m 0.96,1.68 0.48,0.72 m 0.72,1.44 0.48,0.72"
       style="fill:none;stroke:#000000;stroke-width:0.57499999;stroke-linecap:round;stroke-linejoin:round;stroke-miterlimit:10;stroke-dasharray:none;stroke-opacity:1"
       id="path310"
       inkscape:connector-curvature="0" /><g
       id="g312"><g
         id="g314"
         clip-path="url(#clipPath318)"><path
           d="m 169.68,327.24 0.24,0.48"
           style="fill:none;stroke:#000000;stroke-width:0.57499999;stroke-linecap:round;stroke-linejoin:round;stroke-miterlimit:10;stroke-dasharray:none;stroke-opacity:1"
           id="path320"
           inkscape:connector-curvature="0" /></g></g><g
       id="g322"><g
         id="g324"
         clip-path="url(#clipPath328)"><path
           d="m 169.92,327.72 0.24,0.48"
           style="fill:none;stroke:#000000;stroke-width:0.57499999;stroke-linecap:round;stroke-linejoin:round;stroke-miterlimit:10;stroke-dasharray:none;stroke-opacity:1"
           id="path330"
           inkscape:connector-curvature="0" /></g></g><text
       transform="matrix(1,0,0,-1,205.68,298.6801)"
       style="font-variant:normal;font-weight:normal;font-size:6.89519978px;font-family:Helvetica;-inkscape-font-specification:Helvetica;writing-mode:lr-tb;fill:#000000;fill-opacity:1;fill-rule:nonzero;stroke:none"
       id="text334"><tspan
         x="0 2.4002192 6.2401562 8.1604691"
         y="0"
         sodipodi:role="line"
         id="tspan332">-3/2</tspan></text>
<text
       transform="matrix(1,0,0,-1,190.8,294.36)"
       style="font-variant:normal;font-weight:normal;font-size:8.84899998px;font-family:Helvetica;-inkscape-font-specification:Helvetica;writing-mode:lr-tb;fill:#000000;fill-opacity:1;fill-rule:nonzero;stroke:none"
       id="text338"><tspan
         x="0 5.0403905 7.680047"
         y="0"
         sodipodi:role="line"
         id="tspan336">~ T</tspan></text>
<text
       transform="matrix(1,0,0,-1,132.48,296.76)"
       style="font-variant:normal;font-weight:normal;font-size:6.89519978px;font-family:Helvetica;-inkscape-font-specification:Helvetica;writing-mode:lr-tb;fill:#000000;fill-opacity:1;fill-rule:nonzero;stroke:none"
       id="text342"><tspan
         x="0 4.0798898 7.9198265 10.080092"
         y="0"
         sodipodi:role="line"
         id="tspan340">+3/2</tspan></text>
<text
       transform="matrix(1,0,0,-1,117.36,293.4)"
       style="font-variant:normal;font-weight:normal;font-size:8.84899998px;font-family:Helvetica;-inkscape-font-specification:Helvetica;writing-mode:lr-tb;fill:#000000;fill-opacity:1;fill-rule:nonzero;stroke:none"
       id="text346"><tspan
         x="0 5.0403905 7.680047"
         y="0"
         sodipodi:role="line"
         id="tspan344">~ T</tspan></text>
<text
       transform="matrix(0,1,1,0,91.2,261.72)"
       style="font-variant:normal;font-weight:normal;font-size:8.84899998px;font-family:Helvetica;-inkscape-font-specification:Helvetica;writing-mode:lr-tb;fill:#000000;fill-opacity:1;fill-rule:nonzero;stroke:none"
       id="text354"><tspan
         x="0 1.920233 6.9606233"
         y="0"
         sodipodi:role="line"
         id="tspan352">log</tspan></text>
<text
       transform="matrix(1,0,0,-1,154.56,206.52)"
       style="font-variant:normal;font-weight:normal;font-size:8.84899998px;font-family:Helvetica;-inkscape-font-specification:Helvetica;writing-mode:lr-tb;fill:#000000;fill-opacity:1;fill-rule:nonzero;stroke:none"
       id="text358"><tspan
         x="0 1.920233 6.7199306 11.519629 14.159285"
         y="0"
         sodipodi:role="line"
         id="tspan356">log T</tspan></text>
<path
       d="m 102.48,325.8 -1.92,4.8 -2.16,-4.8 z"
       style="fill:#000000;fill-opacity:1;fill-rule:evenodd;stroke:#000000;stroke-width:0.23999999;stroke-linecap:round;stroke-linejoin:round;stroke-miterlimit:10;stroke-dasharray:none;stroke-opacity:1"
       id="path376"
       inkscape:connector-curvature="0" /><path
       d="m 100.56,324.36 v 3.36"
       style="fill:none;stroke:#000000;stroke-width:0.23999999;stroke-linecap:round;stroke-linejoin:round;stroke-miterlimit:10;stroke-dasharray:none;stroke-opacity:1"
       id="path378"
       inkscape:connector-curvature="0" /><path
       d="m 229.92,216.12 5.04,2.16 -5.04,1.92 z"
       style="fill:#000000;fill-opacity:1;fill-rule:evenodd;stroke:#000000;stroke-width:0.23999999;stroke-linecap:round;stroke-linejoin:round;stroke-miterlimit:10;stroke-dasharray:none;stroke-opacity:1"
       id="path380"
       inkscape:connector-curvature="0" /><path
       d="m 230.64,218.28 h 4.32"
       style="fill:none;stroke:#000000;stroke-width:0.23999999;stroke-linecap:round;stroke-linejoin:round;stroke-miterlimit:10;stroke-dasharray:none;stroke-opacity:1"
       id="path382"
       inkscape:connector-curvature="0" /><text
       y="91.071831"
       x="276.2121"
       transform="matrix(0,1,1,0,0,0)"
       style="font-variant:normal;font-weight:normal;font-size:8.84899998px;font-family:Helvetica;-inkscape-font-specification:Helvetica;writing-mode:lr-tb;fill:#000000;fill-opacity:1;fill-rule:nonzero;stroke:none;stroke-width:0.99999994"
       id="text354-3"><tspan
         style="stroke-width:0.99999994"
         x="276.2121"
         y="91.071831"
         sodipodi:role="line"
         id="tspan352-6">μ</tspan></text>
</g></svg>