<?xml version="1.0" encoding="UTF-8" standalone="no"?>
<!-- Created with Inkscape (http://www.inkscape.org/) -->

<svg
   xmlns:dc="http://purl.org/dc/elements/1.1/"
   xmlns:cc="http://creativecommons.org/ns#"
   xmlns:rdf="http://www.w3.org/1999/02/22-rdf-syntax-ns#"
   xmlns:svg="http://www.w3.org/2000/svg"
   xmlns="http://www.w3.org/2000/svg"
   xmlns:sodipodi="http://sodipodi.sourceforge.net/DTD/sodipodi-0.dtd"
   xmlns:inkscape="http://www.inkscape.org/namespaces/inkscape"
   version="1.1"
   id="svg1712"
   xml:space="preserve"
   width="603.38409"
   height="288.53305"
   viewBox="0 0 603.38409 288.53304"
   sodipodi:docname="sample-gaas-cross.svg"
   inkscape:version="0.92.2 2405546, 2018-03-11"><sodipodi:namedview
     pagecolor="#ffffff"
     bordercolor="#666666"
     borderopacity="1"
     objecttolerance="10"
     gridtolerance="10"
     guidetolerance="10"
     inkscape:pageopacity="0"
     inkscape:pageshadow="2"
     inkscape:window-width="1920"
     inkscape:window-height="1035"
     id="namedview1714"
     showgrid="false"
     inkscape:zoom="1.1891486"
     inkscape:cx="426.99885"
     inkscape:cy="171.24171"
     inkscape:window-x="0"
     inkscape:window-y="0"
     inkscape:window-maximized="1"
     inkscape:current-layer="g1720"
     fit-margin-top="0"
     fit-margin-left="0"
     fit-margin-right="0"
     fit-margin-bottom="0" /><metadata
     id="metadata1718"><rdf:RDF><cc:Work
         rdf:about=""><dc:format>image/svg+xml</dc:format><dc:type
           rdf:resource="http://purl.org/dc/dcmitype/StillImage" /><dc:title></dc:title></cc:Work></rdf:RDF></metadata><defs
     id="defs1716"><clipPath
       id="clipPath1732"
       clipPathUnits="userSpaceOnUse"><path
         inkscape:connector-curvature="0"
         id="path1730"
         d="m 303.6,35.64 h 0.24 v 13.68 h -0.24 z" /></clipPath><clipPath
       id="clipPath1882"
       clipPathUnits="userSpaceOnUse"><path
         inkscape:connector-curvature="0"
         id="path1880"
         d="m 356.4,642.36 h 168 v 11.28 h -168 z" /></clipPath></defs><g
     transform="matrix(1.3333333,0,0,-1.3333333,-95.423938,918.91267)"
     inkscape:label="Halleffekt_"
     inkscape:groupmode="layer"
     id="g1720">
<g
   id="g1726"><g
     clip-path="url(#clipPath1732)"
     id="g1728" /></g>

























<g
   id="g2949"><path
     d="m 155.52,675.24 h 43.92 V 687 h -43.92 z"
     style="fill:#c0c0c0;fill-opacity:1;fill-rule:evenodd;stroke:#c0c0c0;stroke-width:0.74000001;stroke-linecap:round;stroke-linejoin:miter;stroke-miterlimit:10;stroke-dasharray:none;stroke-opacity:1"
     id="path1776"
     inkscape:connector-curvature="0" /><text
     transform="matrix(1,0,0,-1,70.8,681.72)"
     style="font-variant:normal;font-weight:normal;font-size:10.23939991px;font-family:Helvetica;-inkscape-font-specification:Helvetica;writing-mode:lr-tb;fill:#000000;fill-opacity:1;fill-rule:nonzero;stroke:none"
     id="text1784"><tspan
       x="0 6.720118 9.1202335 14.640294 17.040409 22.560471 28.08053 30.480646 36.000706 39.360252 42.240597 48.000259"
       y="0"
       sodipodi:role="line"
       id="tspan1778">Einlegierter</tspan><tspan
       x="0 8.3707094 14.130372 17.010715 22.530775 24.69129 27.091404 32.131237 37.8909 43.425297 46.305637 51.840034 57.120491"
       y="12.479781"
       sodipodi:role="line"
       id="tspan1780">Metallkontakt</tspan><tspan
       x="288.72137 295.68109 301.20117 304.08151 307.20145 312.72153 316.32169 321.36151 326.64197 332.16205 334.56216 339.60199 345.36166"
       y="171.36044"
       sodipodi:role="line"
       id="tspan1782">Pufferschicht</tspan></text>
<path
     d="m 342.24,582.84 -4.56,-1.2 4.56,-1.2 z"
     style="fill:#000000;fill-opacity:1;fill-rule:evenodd;stroke:#000000;stroke-width:0.23999999;stroke-linecap:round;stroke-linejoin:miter;stroke-miterlimit:10;stroke-dasharray:none;stroke-opacity:1"
     id="path1786"
     inkscape:connector-curvature="0" /><path
     d="M 351.36,581.64 H 340.32"
     style="fill:none;stroke:#000000;stroke-width:0.74000001;stroke-linecap:round;stroke-linejoin:round;stroke-miterlimit:10;stroke-dasharray:none;stroke-opacity:1"
     id="path1788"
     inkscape:connector-curvature="0" /><path
     d="m 343.2,515.64 -4.56,-1.2 4.56,-1.2 z"
     style="fill:#000000;fill-opacity:1;fill-rule:evenodd;stroke:#000000;stroke-width:0.23999999;stroke-linecap:round;stroke-linejoin:round;stroke-miterlimit:10;stroke-dasharray:none;stroke-opacity:1"
     id="path1790"
     inkscape:connector-curvature="0" /><path
     d="m 352.08,514.44 h -10.8"
     style="fill:none;stroke:#000000;stroke-width:0.74000001;stroke-linecap:round;stroke-linejoin:round;stroke-miterlimit:10;stroke-dasharray:none;stroke-opacity:1"
     id="path1792"
     inkscape:connector-curvature="0" /><text
     transform="matrix(1,0,0,-1,357.12,578.52)"
     style="font-variant:normal;font-weight:normal;font-size:10.23939991px;font-family:Helvetica;-inkscape-font-specification:Helvetica;writing-mode:lr-tb;fill:#000000;fill-opacity:1;fill-rule:nonzero;stroke:none"
     id="text1800"><tspan
       x="0 3.3595471 9.1192093 14.399669 17.039385 19.439501 24.479334 30.238997 33.839169 36.478886 43.438606 48.478439 54.238102 56.398617 61.679073 67.199135"
       y="0"
       sodipodi:role="line"
       id="tspan1794">&quot;aktive&quot; Schicht</tspan><tspan
       x="19.1999 27.600304 33.359966 35.520477 38.400822 40.56031 45.840771 50.880604 56.640266 58.799755 64.080215 69.600273 72.480614 75.360962 80.400795 85.920853 89.280403 92.160744 99.141968 101.30248 106.82254 112.09378 117.36503 122.88509 128.64474 134.16481 137.04515 142.31639 147.83646"
       y="36.960136"
       sodipodi:role="line"
       id="tspan1796">Multischicht zur Blockade von</tspan><tspan
       x="19.1999 25.920017 29.520189 31.680704 36.961163 39.60088 45.360542 47.520031 49.680546 55.440208 60.960266 64.080215 69.600273 74.88073 77.761078 83.281136 89.040802 91.680519 97.440178 102.96024 108.2407 111.12104 116.6411 122.40076 130.80116 133.6815 143.76117 149.28123 152.40118 157.92125"
       y="49.439919"
       sodipodi:role="line"
       id="tspan1798">Kristalldefekten aus dem Wafer</tspan></text>
<text
     transform="matrix(1,0,0,-1,350.16,537.48)"
     style="font-variant:normal;font-weight:normal;font-size:0px;font-family:Arial;-inkscape-font-specification:Arial;writing-mode:lr-tb;fill:#000000;fill-opacity:1;fill-rule:nonzero;stroke:none"
     id="text1804"><tspan
       x="0"
       y="0"
       id="tspan1802">x</tspan></text>
<text
     transform="matrix(1,0,0,-1,356.4,537.24)"
     style="font-variant:normal;font-weight:normal;font-size:10.23939991px;font-family:Helvetica;-inkscape-font-specification:Helvetica;writing-mode:lr-tb;fill:#000000;fill-opacity:1;fill-rule:nonzero;stroke:none"
     id="text1808"><tspan
       x="0 5.5200605"
       y="0"
       sodipodi:role="line"
       id="tspan1806">20</tspan></text>
<text
     transform="matrix(1,0,0,-1,334.08,532.6801)"
     style="font-variant:normal;font-weight:normal;font-size:27.01580048px;font-family:Courier;-inkscape-font-specification:Courier;writing-mode:lr-tb;fill:#000000;fill-opacity:1;fill-rule:nonzero;stroke:none"
     id="text1812"><tspan
       x="0"
       y="0"
       id="tspan1810">}</tspan></text>
<text
     transform="matrix(1,0,0,-1,226.56,484.2)"
     style="font-variant:normal;font-weight:normal;font-size:7.97809982px;font-family:Helvetica;-inkscape-font-specification:Helvetica;writing-mode:lr-tb;fill:#000000;fill-opacity:1;fill-rule:nonzero;stroke:none"
     id="text1816"><tspan
       x="0 5.7601881 10.080329 15.349864 19.189724 21.349396 29.029114 33.349255 35.515308 39.835449"
       y="0"
       sodipodi:role="line"
       id="tspan1814">GaAs Wafer</tspan></text>
<path
     d="m 138.48,663.96 h 196.56 v 10.8 H 138.48 Z"
     style="fill:#d8d8d8;fill-opacity:1;fill-rule:evenodd;stroke:#d8d8d8;stroke-width:0.74000001;stroke-linecap:round;stroke-linejoin:miter;stroke-miterlimit:10;stroke-dasharray:none;stroke-opacity:1"
     id="path1818"
     inkscape:connector-curvature="0" /><path
     d="m 138.72,632.76 h 196.32 v 30.96 H 138.72 Z"
     style="fill:#f1f1f1;fill-opacity:1;fill-rule:evenodd;stroke:#f1f1f1;stroke-width:0.74000001;stroke-linecap:round;stroke-linejoin:miter;stroke-miterlimit:10;stroke-dasharray:none;stroke-opacity:1"
     id="path1820"
     inkscape:connector-curvature="0" /><path
     d="m 138.96,550.68 h 196.56 v 64.8 H 138.96 Z"
     style="fill:#d8d8d8;fill-opacity:1;fill-rule:evenodd;stroke:#d8d8d8;stroke-width:0.74000001;stroke-linecap:round;stroke-linejoin:miter;stroke-miterlimit:10;stroke-dasharray:none;stroke-opacity:1"
     id="path1822"
     inkscape:connector-curvature="0" /><path
     d="m 138.72,502.44 h 197.04 v 35.52 H 138.72 Z"
     style="fill:#d8d8d8;fill-opacity:1;fill-rule:evenodd;stroke:#d8d8d8;stroke-width:0.74000001;stroke-linecap:round;stroke-linejoin:miter;stroke-miterlimit:10;stroke-dasharray:none;stroke-opacity:1"
     id="path1824"
     inkscape:connector-curvature="0" /><path
     d="m 138.48,538.92 h 197.04 v 10.56 H 138.48 Z"
     style="fill:#f1f1f1;fill-opacity:1;fill-rule:evenodd;stroke:#f1f1f1;stroke-width:0.74000001;stroke-linecap:round;stroke-linejoin:miter;stroke-miterlimit:10;stroke-dasharray:none;stroke-opacity:1"
     id="path1826"
     inkscape:connector-curvature="0" /><path
     d="m 138.48,615.48 h 197.04 v 16.08 H 138.48 Z"
     style="fill:#f1f1f1;fill-opacity:1;fill-rule:evenodd;stroke:#f1f1f1;stroke-width:0.74000001;stroke-linecap:round;stroke-linejoin:miter;stroke-miterlimit:10;stroke-dasharray:none;stroke-opacity:1"
     id="path1828"
     inkscape:connector-curvature="0" /><path
     d="M 336,675 V 473.16"
     style="fill:none;stroke:#000000;stroke-width:0.74000001;stroke-linecap:round;stroke-linejoin:round;stroke-miterlimit:10;stroke-dasharray:none;stroke-opacity:1"
     id="path1830"
     inkscape:connector-curvature="0" /><text
     transform="matrix(1,0,0,-1,225.84,666.6)"
     style="font-variant:normal;font-weight:normal;font-size:7.97809982px;font-family:Helvetica;-inkscape-font-specification:Helvetica;writing-mode:lr-tb;fill:#000000;fill-opacity:1;fill-rule:nonzero;stroke:none"
     id="text1836"><tspan
       x="0 4.0800004 8.4001417 10.559813 14.639813 21.119627 27.359299 33.359627 37.679768 42.719536"
       y="0"
       sodipodi:role="line"
       id="tspan1832">20 nm GaAs</tspan><tspan
       x="0 4.0800004 8.4001417 10.559813 14.639813 21.119627 27.359299 32.639206"
       y="43.920238"
       sodipodi:role="line"
       id="tspan1834">45 nm Al</tspan></text>
<text
     transform="matrix(1,0,0,-1,259.92,619.56)"
     style="font-variant:normal;font-weight:normal;font-size:4.78679991px;font-family:Helvetica;-inkscape-font-specification:Helvetica;writing-mode:lr-tb;fill:#000000;fill-opacity:1;fill-rule:nonzero;stroke:none"
     id="text1840"><tspan
       x="0 2.6399202 4.0797896 6.7197099"
       y="0"
       sodipodi:role="line"
       id="tspan1838">0,25</tspan></text>
<text
     transform="matrix(1,0,0,-1,269.28,622.68)"
     style="font-variant:normal;font-weight:normal;font-size:7.97809982px;font-family:Helvetica;-inkscape-font-specification:Helvetica;writing-mode:lr-tb;fill:#000000;fill-opacity:1;fill-rule:nonzero;stroke:none"
     id="text1844"><tspan
       x="0 6.000329"
       y="0"
       sodipodi:role="line"
       id="tspan1842">Ga</tspan></text>
<text
     transform="matrix(1,0,0,-1,279.6,619.56)"
     style="font-variant:normal;font-weight:normal;font-size:4.78679991px;font-family:Helvetica;-inkscape-font-specification:Helvetica;writing-mode:lr-tb;fill:#000000;fill-opacity:1;fill-rule:nonzero;stroke:none"
     id="text1848"><tspan
       x="0 2.6399202 4.0797896 6.7197099"
       y="0"
       sodipodi:role="line"
       id="tspan1846">0.75</tspan></text>
<text
     transform="matrix(1,0,0,-1,288.96,622.68)"
     style="font-variant:normal;font-weight:normal;font-size:7.97809982px;font-family:Helvetica;-inkscape-font-specification:Helvetica;writing-mode:lr-tb;fill:#000000;fill-opacity:1;fill-rule:nonzero;stroke:none"
     id="text1852"><tspan
       x="0 5.2799067"
       y="0"
       sodipodi:role="line"
       id="tspan1850">As</tspan></text>
<path
     d="m 343.2,625.08 -4.56,-1.2 4.56,-1.2 z"
     style="fill:#000000;fill-opacity:1;fill-rule:evenodd;stroke:#000000;stroke-width:0.23999999;stroke-linecap:round;stroke-linejoin:round;stroke-miterlimit:10;stroke-dasharray:none;stroke-opacity:1"
     id="path1854"
     inkscape:connector-curvature="0" /><path
     d="m 352.08,623.88 h -10.8"
     style="fill:none;stroke:#000000;stroke-width:0.74000001;stroke-linecap:round;stroke-linejoin:round;stroke-miterlimit:10;stroke-dasharray:none;stroke-opacity:1"
     id="path1856"
     inkscape:connector-curvature="0" /><path
     d="m 342.72,648.36 -4.56,-1.2 4.56,-1.2 z"
     style="fill:#000000;fill-opacity:1;fill-rule:evenodd;stroke:#000000;stroke-width:0.23999999;stroke-linecap:round;stroke-linejoin:round;stroke-miterlimit:10;stroke-dasharray:none;stroke-opacity:1"
     id="path1858"
     inkscape:connector-curvature="0" /><path
     d="M 351.6,647.16 H 340.8"
     style="fill:none;stroke:#000000;stroke-width:0.74000001;stroke-linecap:round;stroke-linejoin:round;stroke-miterlimit:10;stroke-dasharray:none;stroke-opacity:1"
     id="path1860"
     inkscape:connector-curvature="0" /><path
     d="m 342,672.12 -4.56,-1.2 4.56,-1.2 z"
     style="fill:#000000;fill-opacity:1;fill-rule:evenodd;stroke:#000000;stroke-width:0.23999999;stroke-linecap:round;stroke-linejoin:round;stroke-miterlimit:10;stroke-dasharray:none;stroke-opacity:1"
     id="path1862"
     inkscape:connector-curvature="0" /><path
     d="m 350.88,670.92 h -10.8"
     style="fill:none;stroke:#000000;stroke-width:0.74000001;stroke-linecap:round;stroke-linejoin:round;stroke-miterlimit:10;stroke-dasharray:none;stroke-opacity:1"
     id="path1864"
     inkscape:connector-curvature="0" /><path
     d="m 343.92,610.68 -4.8,0.48 3.84,-2.88 z"
     style="fill:#000000;fill-opacity:1;fill-rule:evenodd;stroke:#000000;stroke-width:0.23999999;stroke-linecap:round;stroke-linejoin:round;stroke-miterlimit:10;stroke-dasharray:none;stroke-opacity:1"
     id="path1866"
     inkscape:connector-curvature="0" /><path
     d="m 352.08,606.36 -10.56,3.84"
     style="fill:none;stroke:#000000;stroke-width:0.74000001;stroke-linecap:round;stroke-linejoin:round;stroke-miterlimit:10;stroke-dasharray:none;stroke-opacity:1"
     id="path1868"
     inkscape:connector-curvature="0" /><text
     transform="matrix(1,0,0,-1,355.68,601.08)"
     style="font-variant:normal;font-weight:normal;font-size:10.23939991px;font-family:Helvetica;-inkscape-font-specification:Helvetica;writing-mode:lr-tb;fill:#000000;fill-opacity:1;fill-rule:nonzero;stroke:none"
     id="text1874"><tspan
       x="0 5.7504473 13.200635 19.920753"
       y="0"
       sodipodi:role="line"
       id="tspan1870">2DEG</tspan><tspan
       x="0 6.9597201 12.479781 17.760239 20.399956 26.159618 31.67968 37.439342 42.719799 47.759632 53.040092 58.560154 60.960266 66.000099 71.759766"
       y="-19.1999"
       sodipodi:role="line"
       id="tspan1872">Abstandsschicht</tspan></text>
<g
     id="g1876"><g
       id="g1878"
       clip-path="url(#clipPath1882)"><text
   transform="matrix(1,0,0,-1,356.4,644.52)"
   style="font-variant:normal;font-weight:normal;font-size:10.23939991px;font-family:Helvetica;-inkscape-font-specification:Helvetica;writing-mode:lr-tb;fill:#000000;fill-opacity:1;fill-rule:nonzero;stroke:none"
   id="text1886"><tspan
     x="0 5.5200605 8.8796082 14.626983 20.147043 23.047865 25.207355 30.954731 34.314278 37.215099 42.735161 45.615501 52.335621 54.735737 60.255798 65.536255 68.43708 71.796623 77.316689 83.076347 88.596405 94.356071 97.715622 104.43574 110.18311 115.70317 121.45055 126.97061 132.71799 136.07753 141.35799 146.39783 152.1452 154.30469 159.58514 165.10521"
     y="0"
     sodipodi:role="line"
     id="tspan1884">n-dotierte Elektronen-Spenderschicht</tspan></text>

</g></g><text
     transform="matrix(1,0,0,-1,355.68,667.08)"
     style="font-variant:normal;font-weight:normal;font-size:10.23939991px;font-family:Helvetica;-inkscape-font-specification:Helvetica;writing-mode:lr-tb;fill:#000000;fill-opacity:1;fill-rule:nonzero;stroke:none"
     id="text1890"><tspan
       x="0 6.9597201 11.999553 17.747952 23.268013 26.169859 31.209692 36.49015 41.529984 47.278381 49.43787 54.71833 60.238392"
       y="0"
       sodipodi:role="line"
       id="tspan1888">Schutzschicht</tspan></text>
<text
     transform="matrix(1,0,0,-1,225.84,646.68)"
     style="font-variant:normal;font-weight:normal;font-size:7.97809982px;font-family:Helvetica;-inkscape-font-specification:Helvetica;writing-mode:lr-tb;fill:#000000;fill-opacity:1;fill-rule:nonzero;stroke:none"
     id="text1894"><tspan
       x="0 4.0800004 8.4001417 10.559813 14.639813 21.119627 27.359299 32.639206"
       y="0"
       sodipodi:role="line"
       id="tspan1892">80 nm Al</tspan></text>
<text
     transform="matrix(1,0,0,-1,259.92,643.56)"
     style="font-variant:normal;font-weight:normal;font-size:4.78679991px;font-family:Helvetica;-inkscape-font-specification:Helvetica;writing-mode:lr-tb;fill:#000000;fill-opacity:1;fill-rule:nonzero;stroke:none"
     id="text1898"><tspan
       x="0 2.6399202 4.0797896 6.7197099"
       y="0"
       sodipodi:role="line"
       id="tspan1896">0,25</tspan></text>
<text
     transform="matrix(1,0,0,-1,269.28,646.68)"
     style="font-variant:normal;font-weight:normal;font-size:7.97809982px;font-family:Helvetica;-inkscape-font-specification:Helvetica;writing-mode:lr-tb;fill:#000000;fill-opacity:1;fill-rule:nonzero;stroke:none"
     id="text1902"><tspan
       x="0 6.000329"
       y="0"
       sodipodi:role="line"
       id="tspan1900">Ga</tspan></text>
<text
     transform="matrix(1,0,0,-1,279.6,643.56)"
     style="font-variant:normal;font-weight:normal;font-size:4.78679991px;font-family:Helvetica;-inkscape-font-specification:Helvetica;writing-mode:lr-tb;fill:#000000;fill-opacity:1;fill-rule:nonzero;stroke:none"
     id="text1906"><tspan
       x="0 2.6399202 4.0797896 6.7197099"
       y="0"
       sodipodi:role="line"
       id="tspan1904">0,75</tspan></text>
<text
     transform="matrix(1,0,0,-1,288.96,646.68)"
     style="font-variant:normal;font-weight:normal;font-size:7.97809982px;font-family:Helvetica;-inkscape-font-specification:Helvetica;writing-mode:lr-tb;fill:#000000;fill-opacity:1;fill-rule:nonzero;stroke:none"
     id="text1912"><tspan
       x="0 5.2799067 9.1197662 11.040094 16.320002"
       y="0"
       sodipodi:role="line"
       id="tspan1908">As:Si</tspan><tspan
       x="-63.120335 -59.040333"
       y="67.679817"
       sodipodi:role="line"
       id="tspan1910">1 </tspan></text>
<text
     transform="matrix(1,0,0,-1,232.08,579)"
     style="font-variant:normal;font-weight:normal;font-size:7.27580023px;font-family:Symbol;-inkscape-font-specification:Symbol;writing-mode:lr-tb;fill:#000000;fill-opacity:1;fill-rule:nonzero;stroke:none"
     id="text1916"><tspan
       x="0"
       y="0"
       id="tspan1914">µ</tspan></text>
<text
     transform="matrix(1,0,0,-1,236.16,579)"
     style="font-variant:normal;font-weight:normal;font-size:7.97809982px;font-family:Helvetica;-inkscape-font-specification:Helvetica;writing-mode:lr-tb;fill:#000000;fill-opacity:1;fill-rule:nonzero;stroke:none"
     id="text1922"><tspan
       x="0 6.2396722 18.719015 24.719345 29.039486 34.309021"
       y="0"
       sodipodi:role="line"
       id="tspan1918">m GaAs</tspan><tspan
       x="-10.319673 -6.2396722 -4.0800004 0.24014081"
       y="65.520149"
       sodipodi:role="line"
       id="tspan1920">0,5 </tspan></text>
<text
     transform="matrix(1,0,0,-1,238.56,513.48)"
     style="font-variant:normal;font-weight:normal;font-size:7.27580023px;font-family:Symbol;-inkscape-font-specification:Symbol;writing-mode:lr-tb;fill:#000000;fill-opacity:1;fill-rule:nonzero;stroke:none"
     id="text1926"><tspan
       x="0"
       y="0"
       id="tspan1924">µ</tspan></text>
<text
     transform="matrix(1,0,0,-1,242.4,513.48)"
     style="font-variant:normal;font-weight:normal;font-size:7.97809982px;font-family:Helvetica;-inkscape-font-specification:Helvetica;writing-mode:lr-tb;fill:#000000;fill-opacity:1;fill-rule:nonzero;stroke:none"
     id="text1934"><tspan
       x="0 6.4798126 12.719485 18.719814 23.039955 28.079721"
       y="0"
       sodipodi:role="line"
       id="tspan1928">m GaAs</tspan><tspan
       x="-16.560143 -12.480142 -10.32047 -6.000329 -3.8406572 0.239343 6.7191558 12.958828 18.719015 23.039158 28.319063"
       y="-18.000189"
       sodipodi:role="line"
       id="tspan1930">1,5 nm GaAs</tspan><tspan
       x="-16.560143 -12.480142 -10.32047 -6.000329 -3.8406572 0.239343 6.7191558 12.958828 17.998594"
       y="-29.520567"
       sodipodi:role="line"
       id="tspan1932">9,0 nm Al</tspan></text>
<text
     transform="matrix(1,0,0,-1,262.08,539.88)"
     style="font-variant:normal;font-weight:normal;font-size:4.78679991px;font-family:Helvetica;-inkscape-font-specification:Helvetica;writing-mode:lr-tb;fill:#000000;fill-opacity:1;fill-rule:nonzero;stroke:none"
     id="text1938"><tspan
       x="0 2.6399202 4.0797896 6.7197099"
       y="0"
       sodipodi:role="line"
       id="tspan1936">0,25</tspan></text>
<text
     transform="matrix(1,0,0,-1,271.44,543)"
     style="font-variant:normal;font-weight:normal;font-size:7.97809982px;font-family:Helvetica;-inkscape-font-specification:Helvetica;writing-mode:lr-tb;fill:#000000;fill-opacity:1;fill-rule:nonzero;stroke:none"
     id="text1942"><tspan
       x="0 6.000329"
       y="0"
       sodipodi:role="line"
       id="tspan1940">Ga</tspan></text>
<text
     transform="matrix(1,0,0,-1,281.76,539.88)"
     style="font-variant:normal;font-weight:normal;font-size:4.78679991px;font-family:Helvetica;-inkscape-font-specification:Helvetica;writing-mode:lr-tb;fill:#000000;fill-opacity:1;fill-rule:nonzero;stroke:none"
     id="text1946"><tspan
       x="0 2.6399202 3.8399711 6.4798913"
       y="0"
       sodipodi:role="line"
       id="tspan1944">0.75</tspan></text>
<text
     transform="matrix(1,0,0,-1,291.12,543)"
     style="font-variant:normal;font-weight:normal;font-size:7.97809982px;font-family:Helvetica;-inkscape-font-specification:Helvetica;writing-mode:lr-tb;fill:#000000;fill-opacity:1;fill-rule:nonzero;stroke:none"
     id="text1950"><tspan
       x="0 5.0397658"
       y="0"
       sodipodi:role="line"
       id="tspan1948">As</tspan></text>
<path
     d="M 138.24,664.44 H 336 M 138.24,632.04 H 336 M 138,614.76 H 335.76 M 138,550.44 H 335.52 M 138.24,537.96 H 336 m -198,-8.4 H 335.76 M 138,501.72 h 197.76 m -198,173.52 V 473.4 M 138.24,675 H 336"
     style="fill:none;stroke:#000000;stroke-width:0.74000001;stroke-linecap:round;stroke-linejoin:round;stroke-miterlimit:10;stroke-dasharray:none;stroke-opacity:1"
     id="path1952"
     inkscape:connector-curvature="0" /><path
     d="m 142.08,611.16 h 4.8 m 6.72,0 h 4.8 m 6.72,0 h 4.56 m 6.72,0 h 4.8 m 6.72,0 h 4.8 m 6.48,0 h 4.8 m 6.72,0 h 4.8 m 6.72,0 h 4.56 m 6.72,0 h 4.8 m 6.72,0 h 4.8 m 6.48,0 h 4.8 m 6.72,0 h 4.8 m 6.72,0 h 4.56 m 6.72,0 h 4.8 m 6.72,0 h 4.8 m 6.72,0 h 4.56 m 6.72,0 h 4.8"
     style="fill:none;stroke:#000000;stroke-width:1.33299994;stroke-linecap:round;stroke-linejoin:round;stroke-miterlimit:10;stroke-dasharray:none;stroke-opacity:1"
     id="path1954"
     inkscape:connector-curvature="0" /><path
     d="m 149.28,646.2 4.56,-1.2 -3.36,3.36 z"
     style="fill:#000000;fill-opacity:1;fill-rule:evenodd;stroke:#000000;stroke-width:0.23999999;stroke-linecap:round;stroke-linejoin:round;stroke-miterlimit:10;stroke-dasharray:none;stroke-opacity:1"
     id="path1956"
     inkscape:connector-curvature="0" /><path
     d="M 117.36,665.88 151.68,646.2"
     style="fill:none;stroke:#000000;stroke-width:0.74000001;stroke-linecap:round;stroke-linejoin:round;stroke-miterlimit:10;stroke-dasharray:none;stroke-opacity:1"
     id="path1958"
     inkscape:connector-curvature="0" /><path
     d="m 155.04,675 v 0 m 0,-4.8 4.8,4.8 m -4.8,-9.36 9.36,9.36 M 155.04,660.84 169.2,675 M 155.04,656.04 174,675 M 155.04,651.24 178.8,675 M 155.04,646.44 183.6,675 M 155.04,641.88 188.16,675 M 155.04,637.08 192.96,675 M 155.04,632.28 197.76,675 m -42.72,-47.52 44.4,44.64 m -44.4,-49.44 44.4,44.64 m -44.4,-49.2 44.4,44.4 m -44.4,-49.2 44.4,44.4 m -44.4,-49.2 44.4,44.64 m -44.4,-49.44 44.4,44.64 m -44.4,-49.44 44.4,44.64 m -42.96,-47.76 42.96,42.96 m -38.16,-42.96 38.16,38.16 m -33.36,-38.16 33.36,33.6 m -28.8,-33.6 28.8,28.8 m -24,-28.8 24,24 m -19.2,-24 19.2,19.2 m -14.4,-19.2 14.4,14.4 m -9.6,-14.4 9.6,9.84 m -5.04,-9.84 5.04,5.04 m -0.24,-5.04 0.24,0.24 m -44.4,78.96 44.4,-44.4 m -44.4,39.6 44.4,-44.4 m -44.4,39.84 44.4,-44.64 m -44.4,39.84 44.4,-44.64 m -44.4,39.84 44.4,-44.64 m -44.4,39.84 44.4,-44.4 m -44.4,39.6 44.4,-44.4 m -44.4,39.84 44.4,-44.64 m -44.4,39.84 41.28,-41.28 m -41.28,36.48 36.48,-36.48 m -36.48,31.68 31.68,-31.68 m -31.68,26.88 26.88,-26.88 m -26.88,22.32 22.32,-22.32 m -22.32,17.52 17.52,-17.52 m -17.52,12.72 12.72,-12.72 m -12.72,7.92 7.92,-7.92 m -7.92,3.12 3.12,-3.12 m -3.12,79.2 44.4,-44.4 m -39.6,44.4 39.6,-39.84 M 164.4,675 199.44,639.96 M 169.2,675 199.44,644.76 M 174,675 199.44,649.56 M 178.8,675 199.44,654.36 M 183.6,675 199.44,658.92 M 188.16,675 199.44,663.72 m -6.48,11.28 6.48,-6.48 m -1.68,6.48 1.68,-1.68 m -44.4,1.68 h 44.64 v -79.2 h -44.64 z"
     style="fill:none;stroke:#000000;stroke-width:0.23999999;stroke-linecap:round;stroke-linejoin:round;stroke-miterlimit:10;stroke-dasharray:none;stroke-opacity:1"
     id="path1960"
     inkscape:connector-curvature="0" /></g>













</g></svg>