<?xml version="1.0" encoding="UTF-8" standalone="no"?>
<!-- Created with Inkscape (http://www.inkscape.org/) -->

<svg
   xmlns:dc="http://purl.org/dc/elements/1.1/"
   xmlns:cc="http://creativecommons.org/ns#"
   xmlns:rdf="http://www.w3.org/1999/02/22-rdf-syntax-ns#"
   xmlns:svg="http://www.w3.org/2000/svg"
   xmlns="http://www.w3.org/2000/svg"
   xmlns:sodipodi="http://sodipodi.sourceforge.net/DTD/sodipodi-0.dtd"
   xmlns:inkscape="http://www.inkscape.org/namespaces/inkscape"
   version="1.1"
   id="svg834"
   xml:space="preserve"
   width="413.60471"
   height="207.33069"
   viewBox="0 0 413.60471 207.33069"
   sodipodi:docname="gaas-hetherostructure.svg"
   inkscape:version="0.92.2 2405546, 2018-03-11"><metadata
     id="metadata840"><rdf:RDF><cc:Work
         rdf:about=""><dc:format>image/svg+xml</dc:format><dc:type
           rdf:resource="http://purl.org/dc/dcmitype/StillImage" /><dc:title></dc:title></cc:Work></rdf:RDF></metadata><defs
     id="defs838"><clipPath
       clipPathUnits="userSpaceOnUse"
       id="clipPath980"><path
         d="m 377.018,412.748 5.22,7.83 h 7.83 l -5.22,-7.83 -7.83,-10.441 -5.22,-7.83 h -7.831"
         id="path978"
         inkscape:connector-curvature="0"
         style="clip-rule:evenodd" /></clipPath><clipPath
       clipPathUnits="userSpaceOnUse"
       id="clipPath1008"><path
         d="m 328.731,386.646 3.915,7.831 H 320.9 l -5.22,-7.831"
         id="path1006"
         inkscape:connector-curvature="0"
         style="clip-rule:evenodd" /></clipPath><clipPath
       clipPathUnits="userSpaceOnUse"
       id="clipPath1028"><path
         d="m 179.954,386.646 5.22,7.831 h 13.051 l -5.22,-7.831"
         id="path1026"
         inkscape:connector-curvature="0"
         style="clip-rule:evenodd" /></clipPath><clipPath
       clipPathUnits="userSpaceOnUse"
       id="clipPath1048"><path
         d="m 263.478,386.646 h -18.271 l 5.22,7.831 h 18.271"
         id="path1046"
         inkscape:connector-curvature="0"
         style="clip-rule:evenodd" /></clipPath><clipPath
       clipPathUnits="userSpaceOnUse"
       id="clipPath1068"><path
         d="m 207.36,428.408 -3.915,-7.83 h 11.746 l 5.22,7.83"
         id="path1066"
         inkscape:connector-curvature="0"
         style="clip-rule:evenodd" /></clipPath><clipPath
       clipPathUnits="userSpaceOnUse"
       id="clipPath1088"><path
         d="m 356.137,428.408 -5.22,-7.83 h -13.051 l 5.22,7.83"
         id="path1086"
         inkscape:connector-curvature="0"
         style="clip-rule:evenodd" /></clipPath><clipPath
       clipPathUnits="userSpaceOnUse"
       id="clipPath1108"><path
         d="m 272.613,428.408 h 18.271 l -5.22,-7.83 h -18.271"
         id="path1106"
         inkscape:connector-curvature="0"
         style="clip-rule:evenodd" /></clipPath><clipPath
       clipPathUnits="userSpaceOnUse"
       id="clipPath1128"><path
         d="M 165.599,402.307 H 369.187"
         id="path1126"
         inkscape:connector-curvature="0"
         style="clip-rule:evenodd" /></clipPath><clipPath
       clipPathUnits="userSpaceOnUse"
       id="clipPath1144"><path
         d="m 174.734,412.748 -6.525,-7.831 -7.831,-7.83 h -7.83 l 19.576,23.491 h 6.525"
         id="path1142"
         inkscape:connector-curvature="0"
         style="clip-rule:evenodd" /></clipPath><clipPath
       clipPathUnits="userSpaceOnUse"
       id="clipPath1174"><path
         d="M 116.006,480.61 H 612 V 0.03 H 116.006 Z m 298.162,-70.038 6.961,-1.74 -6.961,-1.74 h 9.397 v 3.48"
         id="path1172"
         inkscape:connector-curvature="0" /></clipPath></defs><sodipodi:namedview
     pagecolor="#ffffff"
     bordercolor="#666666"
     borderopacity="1"
     objecttolerance="10"
     gridtolerance="10"
     guidetolerance="10"
     inkscape:pageopacity="0"
     inkscape:pageshadow="2"
     inkscape:window-width="1920"
     inkscape:window-height="1029"
     id="namedview836"
     showgrid="false"
     fit-margin-top="0"
     fit-margin-left="0"
     fit-margin-right="0"
     fit-margin-bottom="0"
     inkscape:zoom="2.3034539"
     inkscape:cx="166.95247"
     inkscape:cy="123.36266"
     inkscape:window-x="0"
     inkscape:window-y="0"
     inkscape:window-maximized="1"
     inkscape:current-layer="g842" /><g
     id="g842"
     inkscape:groupmode="layer"
     inkscape:label="QHE"
     transform="matrix(1.3333333,0,0,-1.3333333,-161.33362,588.75732)"><text
       transform="translate(105.60002,654.69006)"
       style="font-variant:normal;font-weight:normal;font-size:0px;font-family:Arial;-inkscape-font-specification:Arial;writing-mode:lr-tb;fill:#000000;fill-opacity:1;fill-rule:nonzero;stroke:none"
       id="text876"><tspan
         x="0"
         y="0"
         id="tspan874"></tspan></text>
<text
       transform="translate(403.32004,654.69006)"
       style="font-variant:normal;font-weight:normal;font-size:0px;font-family:Arial;-inkscape-font-specification:Arial;writing-mode:lr-tb;fill:#000000;fill-opacity:1;fill-rule:nonzero;stroke:none"
       id="text892"><tspan
         x="0"
         y="0"
         id="tspan890"></tspan></text>
<path
       d="m 229.545,401.01 c 0,-2.161 -1.754,-3.915 -3.915,-3.915 -2.161,0 -3.915,1.754 -3.915,3.915 0,2.161 1.754,3.915 3.915,3.915 2.161,0 3.915,-1.754 3.915,-3.915 z M 217.917,324 c 0,-17.353 -14.084,-31.437 -31.437,-31.437 -17.353,0 -31.437,14.084 -31.437,31.437 0,17.353 14.084,31.437 31.437,31.437 17.353,0 31.437,-14.084 31.437,-31.437 z"
       style="fill:none;stroke:#000000;stroke-width:0.21799999;stroke-linecap:butt;stroke-linejoin:miter;stroke-miterlimit:10;stroke-dasharray:none;stroke-opacity:1"
       id="path972"
       inkscape:connector-curvature="0" /><path
       d="m 377.018,412.748 5.22,7.83 h 7.83 l -5.22,-7.83 -7.83,-10.441 -5.22,-7.83 h -7.831 z m -36.542,0 h 37.847 m -176.183,0 h -28.711"
       style="fill:none;stroke:#000000;stroke-width:0.21799999;stroke-linecap:butt;stroke-linejoin:miter;stroke-miterlimit:10;stroke-dasharray:none;stroke-opacity:1"
       id="path1000"
       inkscape:connector-curvature="0" /><path
       d="m 328.731,386.646 3.915,7.831 H 320.9 l -5.22,-7.831 z"
       style="fill:none;stroke:#000000;stroke-width:0.21799999;stroke-linecap:butt;stroke-linejoin:miter;stroke-miterlimit:10;stroke-dasharray:none;stroke-opacity:1"
       id="path1020"
       inkscape:connector-curvature="0" /><path
       d="m 179.954,386.646 5.22,7.831 h 13.051 l -5.22,-7.831 z"
       style="fill:none;stroke:#000000;stroke-width:0.21799999;stroke-linecap:butt;stroke-linejoin:miter;stroke-miterlimit:10;stroke-dasharray:none;stroke-opacity:1"
       id="path1040"
       inkscape:connector-curvature="0" /><path
       d="m 263.478,386.646 h -18.271 l 5.22,7.831 h 18.271 z m 65.253,7.831 5.22,7.83 m -7.83,-7.83 5.22,7.83 m -70.473,-7.83 5.22,7.83 m -7.83,-7.83 5.22,7.83 m -70.473,-7.83 5.22,7.83 m -7.83,-7.83 5.22,7.83 m 134.421,0 h -63.948 m -2.61,0 h -65.253"
       style="fill:none;stroke:#000000;stroke-width:0.21799999;stroke-linecap:butt;stroke-linejoin:miter;stroke-miterlimit:10;stroke-dasharray:none;stroke-opacity:1"
       id="path1060"
       inkscape:connector-curvature="0" /><path
       d="m 207.36,428.408 -3.915,-7.83 h 11.746 l 5.22,7.83 z"
       style="fill:none;stroke:#000000;stroke-width:0.21799999;stroke-linecap:butt;stroke-linejoin:miter;stroke-miterlimit:10;stroke-dasharray:none;stroke-opacity:1"
       id="path1080"
       inkscape:connector-curvature="0" /><path
       d="m 356.137,428.408 -5.22,-7.83 h -13.051 l 5.22,7.83 z"
       style="fill:none;stroke:#000000;stroke-width:0.21799999;stroke-linecap:butt;stroke-linejoin:miter;stroke-miterlimit:10;stroke-dasharray:none;stroke-opacity:1"
       id="path1100"
       inkscape:connector-curvature="0" /><path
       d="m 272.613,428.408 h 18.271 l -5.22,-7.83 h -18.271 z m -65.253,-7.83 -5.22,-7.83 m 7.831,7.83 -5.221,-7.83 m 70.473,7.83 -5.22,-7.83 m 7.83,7.83 -5.22,-7.83 m 70.473,7.83 -5.22,-7.83 m 7.83,7.83 -5.22,-7.83 m -134.421,0 h 63.948 m 2.61,0 h 65.253 M 152.548,397.087 h 7.83 v -2.61 h -7.83 z m 92.659,-10.441 h 18.271 v -2.61 h -18.271 z m 70.473,0 h 13.051 v -2.61 H 315.68 Z m 48.287,7.831 h 7.83 v -2.61 h -7.83 z m -184.013,-7.831 h 13.051 v -2.61 h -13.051 z m 18.271,7.831 v -2.61 l -5.22,-7.831 z m 70.473,0 v -2.61 l -5.22,-7.831 m 69.168,9.136 v -1.305 l -3.915,-7.831 m 61.337,36.542 v -2.61 l -18.27,-26.101 m -211.42,2.61 6.526,7.83"
       style="fill:none;stroke:#000000;stroke-width:0.21799999;stroke-linecap:butt;stroke-linejoin:miter;stroke-miterlimit:10;stroke-dasharray:none;stroke-opacity:1"
       id="path1120"
       inkscape:connector-curvature="0" /><g
       id="g1122"><g
         id="g1124"
         clip-path="url(#clipPath1128)"><text
           transform="matrix(1,0,0,-1,165.5986,395.3471)"
           style="font-variant:normal;font-weight:normal;font-size:6.96000004px;font-family:Arial;-inkscape-font-specification:Arial;writing-mode:lr-tb;fill:#000000;fill-opacity:1;fill-rule:nonzero;stroke:none"
           id="text1134"><tspan
             x="0 6.96 13.92 20.879999 27.84 34.799999 41.759998 48.720001 55.68 62.639999 69.599998 76.559998 83.519997 90.480003 97.440002 104.4 111.36 118.32 125.28 132.24001 139.2 146.16 153.12 160.08 167.03999 174 180.96001 187.92 194.88 201.84"
             y="0"
             sodipodi:role="line"
             id="tspan1130">000000000000000000000000000000</tspan><tspan
             x="0 6.96 13.92 20.879999 27.84 34.799999 41.759998 48.720001 55.68 62.639999 69.599998 76.559998 83.519997 90.480003 97.440002 104.4 111.36 118.32 125.28 132.24001 139.2 146.16 153.12 160.08 167.03999 174 180.96001 187.92 194.88 201.84"
             y="0"
             sodipodi:role="line"
             id="tspan1132">111111111111111111111111111111</tspan></text>
</g></g><path
       d="M 165.599,402.307 H 369.187"
       style="fill:none;stroke:#000000;stroke-width:0.21799999;stroke-linecap:butt;stroke-linejoin:miter;stroke-miterlimit:10;stroke-dasharray:none;stroke-opacity:1"
       id="path1136"
       inkscape:connector-curvature="0" /><path
       d="m 174.734,412.748 -6.525,-7.831 -7.831,-7.83 h -7.83 l 19.576,23.491 h 6.525 z m 3.915,7.83 v -2.61 l -2.61,-5.22 m 27.406,7.83 v -2.61 h 2.61 m 2.61,0 h 6.526 v 2.61 m 5.22,7.83 v -2.61 l -5.22,-7.83 m 52.202,2.61 v -2.61 h 5.22 m 3.915,0 h 9.136 v 2.61 m 5.22,7.83 v -2.61 l -5.22,-7.83 m 52.202,2.61 v -2.61 h 2.61 m 3.915,0 h 6.526 v 2.61 m 5.22,7.83 v -2.61 l -5.22,-7.83 M 164.294,399.697 h 30.016 m 1.305,-5.22 2.61,5.22 h 62.643 m 2.61,-5.22 2.61,5.22 h 63.948 m 1.305,-5.22 2.61,5.22 h 33.931 m -161.827,41.762 h 63.948 M 152.548,415.358 121.227,376.206 h 250.571 m 31.321,44.372 -31.321,-44.372 m 13.05,18.271 32.627,46.982 H 179.954 m -41.762,-44.372 36.542,44.372 m 0,0 h 9.135 m -62.642,-65.253 h 250.571 v -9.135 H 121.227 Z m 296.248,65.253 v -9.136 l -45.677,-65.252"
       style="fill:none;stroke:#000000;stroke-width:0.21799999;stroke-linecap:butt;stroke-linejoin:miter;stroke-miterlimit:10;stroke-dasharray:none;stroke-opacity:1"
       id="path1164"
       inkscape:connector-curvature="0" /><path
       d="m 129.057,408.832 h 39.152"
       style="fill:none;stroke:#000000;stroke-width:0.435;stroke-linecap:butt;stroke-linejoin:miter;stroke-miterlimit:10;stroke-dasharray:none;stroke-opacity:1"
       id="path1166"
       inkscape:connector-curvature="0" /><g
       id="g1168"><g
         id="g1170"
         clip-path="url(#clipPath1174)"><path
           d="m 377.018,408.832 h 45.677"
           style="fill:none;stroke:#000000;stroke-width:0.435;stroke-linecap:butt;stroke-linejoin:miter;stroke-miterlimit:10;stroke-dasharray:none;stroke-opacity:1"
           id="path1176"
           inkscape:connector-curvature="0" /></g></g><path
       d="m 414.168,410.572 6.961,-1.74 -6.961,-1.74 z"
       style="fill:#000000;fill-opacity:1;fill-rule:evenodd;stroke:#000000;stroke-width:0.435;stroke-linecap:butt;stroke-linejoin:miter;stroke-miterlimit:10;stroke-dasharray:none;stroke-opacity:1"
       id="path1178"
       inkscape:connector-curvature="0" /><path
       d="M 326.121,389.257 340.476,354.02"
       style="fill:none;stroke:#000000;stroke-width:0.21799999;stroke-linecap:butt;stroke-linejoin:miter;stroke-miterlimit:10;stroke-dasharray:none;stroke-opacity:1"
       id="path1180"
       inkscape:connector-curvature="0" /><path
       d="M 225.631,397.087 203.445,350.105"
       style="fill:none;stroke:#000000;stroke-width:0.21799999;stroke-linecap:butt;stroke-linejoin:miter;stroke-miterlimit:10;stroke-dasharray:1.74, 0.87, 0.435, 0.87;stroke-dashoffset:0;stroke-opacity:1"
       id="path1182"
       inkscape:connector-curvature="0" /><path
       d="m 161.683,342.274 h 50.898 m -50.898,-36.541 h 52.203"
       style="fill:none;stroke:#000000;stroke-width:0.435;stroke-linecap:butt;stroke-linejoin:miter;stroke-miterlimit:10;stroke-dasharray:none;stroke-opacity:1"
       id="path1184"
       inkscape:connector-curvature="0" /><path
       d="m 156.463,331.834 h 61.338"
       style="fill:none;stroke:#000000;stroke-width:0.21799999;stroke-linecap:butt;stroke-linejoin:miter;stroke-miterlimit:10;stroke-dasharray:1.74;stroke-dashoffset:0;stroke-opacity:1"
       id="path1186"
       inkscape:connector-curvature="0" /><path
       d="m 215.191,337.054 h 18.271 m -16.966,-23.491 h 14.355"
       style="fill:none;stroke:#000000;stroke-width:0.21799999;stroke-linecap:butt;stroke-linejoin:miter;stroke-miterlimit:10;stroke-dasharray:none;stroke-opacity:1"
       id="path1188"
       inkscape:connector-curvature="0" /><path
       d="m 254.342,312.258 v -3.915"
       style="fill:none;stroke:#000000;stroke-width:0.435;stroke-linecap:butt;stroke-linejoin:miter;stroke-miterlimit:10;stroke-dasharray:none;stroke-opacity:1"
       id="path1190"
       inkscape:connector-curvature="0" /><path
       d="m 217.801,331.834 13.05,-6.525 m -31.321,-27.406 23.491,-7.831"
       style="fill:none;stroke:#000000;stroke-width:0.21799999;stroke-linecap:butt;stroke-linejoin:miter;stroke-miterlimit:10;stroke-dasharray:none;stroke-opacity:1"
       id="path1192"
       inkscape:connector-curvature="0" /><text
       transform="matrix(1,0,0,-1,427.915,404.9172)"
       style="font-variant:normal;font-weight:normal;font-size:10.44050026px;font-family:Times;-inkscape-font-specification:Times-Roman;writing-mode:lr-tb;fill:#000000;fill-opacity:1;fill-rule:nonzero;stroke:none"
       id="text1196"><tspan
         x="0"
         y="0"
         id="tspan1194">I</tspan></text>
<text
       transform="matrix(1,0,0,-1,345.6964,350.1048)"
       style="font-variant:normal;font-weight:normal;font-size:8.70040035px;font-family:Times;-inkscape-font-specification:Times-Roman;writing-mode:lr-tb;fill:#000000;fill-opacity:1;fill-rule:nonzero;stroke:none"
       id="text1200"><tspan
         x="0"
         y="0"
         id="tspan1198">n</tspan></text>
<text
       transform="matrix(1,0,0,-1,350.9167,354.02)"
       style="font-variant:normal;font-weight:normal;font-size:6.09030008px;font-family:Times;-inkscape-font-specification:Times-Roman;writing-mode:lr-tb;fill:#000000;fill-opacity:1;fill-rule:nonzero;stroke:none"
       id="text1204"><tspan
         x="0"
         y="0"
         id="tspan1202">+</tspan></text>
<text
       transform="matrix(1,0,0,-1,357.4419,350.1048)"
       style="font-variant:normal;font-weight:normal;font-size:8.70040035px;font-family:Times;-inkscape-font-specification:Times-Roman;writing-mode:lr-tb;fill:#000000;fill-opacity:1;fill-rule:nonzero;stroke:none"
       id="text1210"><tspan
         x="0 2.8972332 5.0723333 11.354022 15.217 21.498688"
         y="0"
         sodipodi:role="line"
         id="tspan1206">- GaAs</tspan><tspan
         x="-190.53876 -184.25706 -176.18311 -169.90141"
         y="15.66072"
         sodipodi:role="line"
         id="tspan1208">AlGa</tspan></text>
<text
       transform="matrix(1,0,0,-1,191.6997,331.834)"
       style="font-variant:normal;font-weight:normal;font-size:6.09030008px;font-family:Times;-inkscape-font-specification:Times-Roman;writing-mode:lr-tb;fill:#000000;fill-opacity:1;fill-rule:nonzero;stroke:none"
       id="text1214"><tspan
         x="0 3.04515 5.0732198"
         y="0"
         sodipodi:role="line"
         id="tspan1212">1-x</tspan></text>
<text
       transform="matrix(1,0,0,-1,204.7503,334.4441)"
       style="font-variant:normal;font-weight:normal;font-size:8.70040035px;font-family:Times;-inkscape-font-specification:Times-Roman;writing-mode:lr-tb;fill:#000000;fill-opacity:1;fill-rule:nonzero;stroke:none"
       id="text1218"><tspan
         x="0 6.2816887"
         y="0"
         sodipodi:role="line"
         id="tspan1216">As</tspan></text>
<text
       transform="matrix(1,0,0,-1,174.734,331.834)"
       style="font-variant:normal;font-weight:normal;font-size:6.09030008px;font-family:Times;-inkscape-font-specification:Times-Roman;writing-mode:lr-tb;fill:#000000;fill-opacity:1;fill-rule:nonzero;stroke:none"
       id="text1222"><tspan
         x="0"
         y="0"
         id="tspan1220">x</tspan></text>
<text
       transform="matrix(1,0,0,-1,174.734,317.4784)"
       style="font-variant:normal;font-weight:normal;font-size:8.70040035px;font-family:Times;-inkscape-font-specification:Times-Roman;writing-mode:lr-tb;fill:#000000;fill-opacity:1;fill-rule:nonzero;stroke:none"
       id="text1226"><tspan
         x="0 6.2816887 10.144667 16.426355"
         y="0"
         sodipodi:role="line"
         id="tspan1224">GaAs</tspan></text>
<text
       transform="matrix(1,0,0,-1,162.9885,308.343)"
       style="font-variant:normal;font-weight:normal;font-size:7.83029985px;font-family:Times;-inkscape-font-specification:Times-Roman;writing-mode:lr-tb;fill:#000000;fill-opacity:1;fill-rule:nonzero;stroke:none"
       id="text1230"><tspan
         x="0"
         sodipodi:role="line"
         id="tspan1228"
         y="0">(not doted)</tspan></text>
<text
       transform="matrix(1,0,0,-1,176.039,295.2924)"
       style="font-variant:normal;font-weight:normal;font-size:8.70040035px;font-family:Times;-inkscape-font-specification:Times-Roman;writing-mode:lr-tb;fill:#000000;fill-opacity:1;fill-rule:nonzero;stroke:none"
       id="text1242"><tspan
         x="0 6.2816887 10.144667 16.426355"
         y="0"
         sodipodi:role="line"
         id="tspan1232">GaAs</tspan><tspan
         x="60.032761 64.382957 68.733162 70.908257 73.805496 75.980591 80.330795 84.680992 89.031197 91.206291 95.556496"
         y="-39.151798"
         sodipodi:role="line"
         id="tspan1234">10 - 100 nm</tspan><tspan
         x="58.727699 63.0779 65.252998 68.15023 72.500435 78.303596 82.653801"
         y="-15.66072"
         sodipodi:role="line"
         id="tspan1236">1 -4 um</tspan><tspan
         x="57.422642 61.772839 68.054527 73.370476"
         y="-27.40626"
         sodipodi:role="line"
         id="tspan1238">2DEG</tspan><tspan
         x="49.592281 52.976734 56.839714 63.608624 66.027336 68.924568"
         y="9.1354198"
         sodipodi:role="line"
         id="tspan1240">semi-insulating</tspan></text>
<path
       style="fill:#969696;stroke:#000000;stroke-width:0.37500001;stroke-linecap:butt;stroke-linejoin:miter;stroke-opacity:1;stroke-miterlimit:4;stroke-dasharray:none;fill-opacity:1"
       d="m 245.207,386.646 5.22,7.831 h 18.271 l -5.22,-7.831 z"
       id="path2900"
       inkscape:connector-curvature="0" /><path
       style="fill:#969696;stroke:#000000;stroke-width:0.37500001;stroke-linecap:butt;stroke-linejoin:miter;stroke-opacity:1;fill-opacity:1;stroke-miterlimit:4;stroke-dasharray:none"
       d="m 203.445,420.578 3.915,7.83 h 13.05101 l -5.22,-7.83 z"
       id="path2904"
       inkscape:connector-curvature="0" /><path
       style="fill:#969696;stroke:#000000;stroke-width:0.37500001;stroke-linecap:butt;stroke-linejoin:miter;stroke-opacity:1;fill-opacity:1;stroke-miterlimit:4;stroke-dasharray:none"
       d="m 179.954,386.646 5.22,7.831 h 13.051 l -5.22,-7.831 z"
       id="path2906"
       inkscape:connector-curvature="0" /><path
       style="fill:#969696;stroke:#000000;stroke-width:0.37500001;stroke-linecap:butt;stroke-linejoin:miter;stroke-opacity:1;fill-opacity:1;stroke-miterlimit:4;stroke-dasharray:none"
       d="m 267.393,420.578 5.22,7.83 h 18.271 l -5.22,-7.83 z"
       id="path2908"
       inkscape:connector-curvature="0" /><path
       style="fill:#969696;stroke:#000000;stroke-width:0.37500001;stroke-linecap:butt;stroke-linejoin:miter;stroke-opacity:1;fill-opacity:1;stroke-miterlimit:4;stroke-dasharray:none"
       d="m 337.866,420.578 5.22,7.83 h 13.051 l -5.22,-7.83 z"
       id="path2910"
       inkscape:connector-curvature="0" /><path
       style="fill:#969696;stroke:#000000;stroke-width:0.37500001;stroke-linecap:butt;stroke-linejoin:miter;stroke-opacity:1;fill-opacity:1;stroke-miterlimit:4;stroke-dasharray:none"
       d="m 315.68001,386.646 5.22,7.831 H 331.341 l -2.61,-7.831 z"
       id="path2912"
       inkscape:connector-curvature="0" /><path
       style="fill:#969696;stroke:#000000;stroke-width:0.37500001;stroke-linecap:butt;stroke-linejoin:miter;stroke-opacity:1;stroke-miterlimit:4;stroke-dasharray:none;fill-opacity:1"
       d="m 363.967,394.477 18.271,26.101 h 7.83 l -18.27,-26.101 z"
       id="path2914"
       inkscape:connector-curvature="0" /><path
       style="fill:#969696;stroke:#000000;stroke-width:0.37500001;stroke-linecap:butt;stroke-linejoin:miter;stroke-opacity:1;fill-opacity:1;stroke-miterlimit:4;stroke-dasharray:none"
       d="m 152.548,397.087 19.576,23.491 h 6.525 l -3.915,-7.83 -14.356,-15.661 z"
       id="path2916"
       inkscape:connector-curvature="0" /></g></svg>
