<?xml version="1.0" encoding="UTF-8" standalone="no"?>
<!-- Created with Inkscape (http://www.inkscape.org/) -->

<svg
   xmlns:dc="http://purl.org/dc/elements/1.1/"
   xmlns:cc="http://creativecommons.org/ns#"
   xmlns:rdf="http://www.w3.org/1999/02/22-rdf-syntax-ns#"
   xmlns:svg="http://www.w3.org/2000/svg"
   xmlns="http://www.w3.org/2000/svg"
   xmlns:sodipodi="http://sodipodi.sourceforge.net/DTD/sodipodi-0.dtd"
   xmlns:inkscape="http://www.inkscape.org/namespaces/inkscape"
   version="1.1"
   id="svg2937"
   xml:space="preserve"
   width="412.90198"
   height="195.36409"
   viewBox="0 0 412.90198 195.36409"
   sodipodi:docname="nfet.svg"
   inkscape:version="0.92.2 2405546, 2018-03-11"><metadata
     id="metadata2943"><rdf:RDF><cc:Work
         rdf:about=""><dc:format>image/svg+xml</dc:format><dc:type
           rdf:resource="http://purl.org/dc/dcmitype/StillImage" /><dc:title></dc:title></cc:Work></rdf:RDF></metadata><defs
     id="defs2941"><clipPath
       clipPathUnits="userSpaceOnUse"
       id="clipPath3019"><path
         d="M 233.806,521.826 H 340.028 V 506.652 H 233.806 Z"
         id="path3017"
         inkscape:connector-curvature="0"
         style="clip-rule:evenodd" /></clipPath><clipPath
       clipPathUnits="userSpaceOnUse"
       id="clipPath3035"><path
         d="M 233.806,521.826 H 340.028 V 506.652 H 233.806 Z"
         id="path3033"
         inkscape:connector-curvature="0"
         style="clip-rule:evenodd" /></clipPath><clipPath
       clipPathUnits="userSpaceOnUse"
       id="clipPath3051"><path
         d="M 233.806,521.826 H 340.028 V 506.652 H 233.806 Z"
         id="path3049"
         inkscape:connector-curvature="0"
         style="clip-rule:evenodd" /></clipPath><clipPath
       clipPathUnits="userSpaceOnUse"
       id="clipPath3067"><path
         d="M 233.806,521.826 H 340.028 V 506.652 H 233.806 Z"
         id="path3065"
         inkscape:connector-curvature="0"
         style="clip-rule:evenodd" /></clipPath><clipPath
       clipPathUnits="userSpaceOnUse"
       id="clipPath3085"><path
         d="M 233.806,521.826 H 340.028 V 506.652 H 233.806 Z"
         id="path3083"
         inkscape:connector-curvature="0"
         style="clip-rule:evenodd" /></clipPath><clipPath
       clipPathUnits="userSpaceOnUse"
       id="clipPath3101"><path
         d="M 233.806,521.826 H 340.028 V 506.652 H 233.806 Z"
         id="path3099"
         inkscape:connector-curvature="0"
         style="clip-rule:evenodd" /></clipPath><clipPath
       clipPathUnits="userSpaceOnUse"
       id="clipPath3117"><path
         d="M 233.806,521.826 H 340.028 V 506.652 H 233.806 Z"
         id="path3115"
         inkscape:connector-curvature="0"
         style="clip-rule:evenodd" /></clipPath><clipPath
       clipPathUnits="userSpaceOnUse"
       id="clipPath3131"><path
         d="m 194.352,506.651 v 15.175 h 21.244 l 6.07,-21.245 h 4.552 v -9.104 h -15.174 v 15.174"
         id="path3129"
         inkscape:connector-curvature="0"
         style="clip-rule:evenodd" /></clipPath><clipPath
       clipPathUnits="userSpaceOnUse"
       id="clipPath3175"><path
         d="m 379.481,506.651 v 15.175 h -21.244 l -6.07,-21.245 h -4.552 v -9.104 h 15.174 v 15.174"
         id="path3173"
         inkscape:connector-curvature="0"
         style="clip-rule:evenodd" /></clipPath><clipPath
       clipPathUnits="userSpaceOnUse"
       id="clipPath3219"><path
         d="M 97.235,658.396 H 612 V 0.03 H 97.235 Z m 182.061,-99.275 3.844,1.619 -2.63,-3.237 4.383,3.271 -1.214,1.618"
         id="path3217"
         inkscape:connector-curvature="0" /></clipPath><clipPath
       clipPathUnits="userSpaceOnUse"
       id="clipPath3233"><path
         d="M 97.235,658.396 H 612 V 0.03 H 97.235 Z m 327.264,-186.242 -1.012,-4.046 -1.011,4.046 v -5.463 h 2.023"
         id="path3231"
         inkscape:connector-curvature="0" /></clipPath></defs><sodipodi:namedview
     pagecolor="#ffffff"
     bordercolor="#666666"
     borderopacity="1"
     objecttolerance="10"
     gridtolerance="10"
     guidetolerance="10"
     inkscape:pageopacity="0"
     inkscape:pageshadow="2"
     inkscape:window-width="1920"
     inkscape:window-height="1029"
     id="namedview2939"
     showgrid="false"
     inkscape:zoom="2.5284424"
     inkscape:cx="140.87091"
     inkscape:cy="56.670724"
     inkscape:window-x="0"
     inkscape:window-y="0"
     inkscape:window-maximized="1"
     inkscape:current-layer="g2945"
     fit-margin-top="0"
     fit-margin-left="0"
     fit-margin-right="0"
     fit-margin-bottom="0" /><g
     id="g2945"
     inkscape:groupmode="layer"
     inkscape:label="QHE"
     transform="matrix(1.3333333,0,0,-1.3333333,-161.86466,748.50692)"><path
   d="m 127.595,537 c 0,-1.675 -1.36,-3.035 -3.035,-3.035 -1.675,0 -3.035,1.36 -3.035,3.035 0,1.675 1.36,3.035 3.035,3.035 1.675,0 3.035,-1.36 3.035,-3.035 z m 294.36,0 c 0,-1.675 -1.36,-3.035 -3.035,-3.035 -1.675,0 -3.035,1.36 -3.035,3.035 0,1.675 1.36,3.035 3.035,3.035 1.675,0 3.035,-1.36 3.035,-3.035 z"
   style="fill:none;stroke:#000000;stroke-width:0.25299999;stroke-linecap:butt;stroke-linejoin:miter;stroke-miterlimit:10;stroke-dasharray:none;stroke-opacity:1"
   id="path2997"
   inkscape:connector-curvature="0" /><path
   d="m 151.877,537 c 0,-0.838 -0.679,-1.517 -1.517,-1.517 -0.838,0 -1.517,0.679 -1.517,1.517 0,0.838 0.679,1.517 1.517,1.517 0.838,0 1.517,-0.679 1.517,-1.517 z"
   style="fill:#000000;fill-opacity:1;fill-rule:evenodd;stroke:#000000;stroke-width:0.25299999;stroke-linecap:butt;stroke-linejoin:miter;stroke-miterlimit:10;stroke-dasharray:none;stroke-opacity:1"
   id="path2999"
   inkscape:connector-curvature="0" /><path
   d="M 173.108,491.477 H 400.726 V 414.98363 H 173.108 Z"
   style="fill:none;stroke:#000000;stroke-width:0.25299999;stroke-linecap:butt;stroke-linejoin:miter;stroke-miterlimit:10;stroke-dasharray:none;stroke-opacity:1"
   id="path3001"
   inkscape:connector-curvature="0"
   sodipodi:nodetypes="ccccc" /><path
   d="m 203.457,491.477 h 30.349 v -15.174 h -30.349 z"
   style="fill:#d9d9d9;fill-opacity:1;fill-rule:evenodd;stroke:#000000;stroke-width:0.25299999;stroke-linecap:butt;stroke-linejoin:miter;stroke-miterlimit:10;stroke-dasharray:none;stroke-opacity:1"
   id="path3003"
   inkscape:connector-curvature="0" /><path
   d="m 340.027,491.477 h 30.349 v -15.174 h -30.349 z"
   style="fill:#d9d9d9;fill-opacity:1;fill-rule:evenodd;stroke:#000000;stroke-width:0.25299999;stroke-linecap:butt;stroke-linejoin:miter;stroke-miterlimit:10;stroke-dasharray:none;stroke-opacity:1"
   id="path3005"
   inkscape:connector-curvature="0" /><path
   d="m 180.695,506.651 h 30.349 v -15.175 h -30.349 z"
   style="fill:#bfbfbf;fill-opacity:1;fill-rule:evenodd;stroke:#000000;stroke-width:0.25299999;stroke-linecap:butt;stroke-linejoin:miter;stroke-miterlimit:10;stroke-dasharray:none;stroke-opacity:1"
   id="path3007"
   inkscape:connector-curvature="0" /><path
   d="M 226.218,506.651 H 347.614 V 491.476 H 226.218 Z"
   style="fill:#bfbfbf;fill-opacity:1;fill-rule:evenodd;stroke:#000000;stroke-width:0.25299999;stroke-linecap:butt;stroke-linejoin:miter;stroke-miterlimit:10;stroke-dasharray:none;stroke-opacity:1"
   id="path3009"
   inkscape:connector-curvature="0" /><path
   d="m 362.789,506.651 h 30.349 v -15.175 h -30.349 z"
   style="fill:#bfbfbf;fill-opacity:1;fill-rule:evenodd;stroke:#000000;stroke-width:0.25299999;stroke-linecap:butt;stroke-linejoin:miter;stroke-miterlimit:10;stroke-dasharray:none;stroke-opacity:1"
   id="path3011"
   inkscape:connector-curvature="0" /><g
   id="g3013"><g
     id="g3015"
     clip-path="url(#clipPath3019)"><text
   transform="matrix(1,0,0,-0.4962963,233.8057,505.7456)"
   style="font-variant:normal;font-weight:normal;font-size:8.10000038px;font-family:Arial;-inkscape-font-specification:Arial;writing-mode:lr-tb;fill:#ffffff;fill-opacity:1;fill-rule:nonzero;stroke:none"
   id="text3023"><tspan
     x="0 8.1000004 16.200001 24.299999 32.400002 40.5 48.599998 56.700001 64.800003 72.900002 81 89.099998 97.199997 105.3"
     y="0"
     sodipodi:role="line"
     id="tspan3021">00000000000000</tspan></text>

</g></g><text
   transform="matrix(1,0,0,-0.4962963,233.8057,509.7656)"
   style="font-variant:normal;font-weight:normal;font-size:8.10000038px;font-family:Arial;-inkscape-font-specification:Arial;writing-mode:lr-tb;fill:#ffffff;fill-opacity:1;fill-rule:nonzero;stroke:none"
   id="text3027"><tspan
     x="0 8.1000004 16.200001 24.299999 32.400002 40.5 48.599998 56.700001 64.800003 72.900002 81 89.099998 97.199997"
     y="0"
     sodipodi:role="line"
     id="tspan3025">0000000000000</tspan></text>

<g
   id="g3029"><g
     id="g3031"
     clip-path="url(#clipPath3035)"><text
   transform="matrix(1,0,0,-0.4962963,339.1057,509.7656)"
   style="font-variant:normal;font-weight:normal;font-size:8.10000038px;font-family:Arial;-inkscape-font-specification:Arial;writing-mode:lr-tb;fill:#ffffff;fill-opacity:1;fill-rule:nonzero;stroke:none"
   id="text3039"><tspan
     x="0"
     y="0"
     id="tspan3037">0</tspan></text>

</g></g><text
   transform="matrix(1,0,0,-0.4962963,233.8057,513.7856)"
   style="font-variant:normal;font-weight:normal;font-size:8.10000038px;font-family:Arial;-inkscape-font-specification:Arial;writing-mode:lr-tb;fill:#ffffff;fill-opacity:1;fill-rule:nonzero;stroke:none"
   id="text3043"><tspan
     x="0 8.1000004 16.200001 24.299999 32.400002 40.5 48.599998 56.700001 64.800003 72.900002 81 89.099998 97.199997"
     y="0"
     sodipodi:role="line"
     id="tspan3041">0000000000000</tspan></text>

<g
   id="g3045"><g
     id="g3047"
     clip-path="url(#clipPath3051)"><text
   transform="matrix(1,0,0,-0.4962963,339.1057,513.7856)"
   style="font-variant:normal;font-weight:normal;font-size:8.10000038px;font-family:Arial;-inkscape-font-specification:Arial;writing-mode:lr-tb;fill:#ffffff;fill-opacity:1;fill-rule:nonzero;stroke:none"
   id="text3055"><tspan
     x="0"
     y="0"
     id="tspan3053">0</tspan></text>

</g></g><text
   transform="matrix(1,0,0,-0.4962963,233.8057,517.8055)"
   style="font-variant:normal;font-weight:normal;font-size:8.10000038px;font-family:Arial;-inkscape-font-specification:Arial;writing-mode:lr-tb;fill:#ffffff;fill-opacity:1;fill-rule:nonzero;stroke:none"
   id="text3059"><tspan
     x="0 8.1000004 16.200001 24.299999 32.400002 40.5 48.599998 56.700001 64.800003 72.900002 81 89.099998 97.199997"
     y="0"
     sodipodi:role="line"
     id="tspan3057">0000000000000</tspan></text>

<g
   id="g3079"><g
     id="g3081"
     clip-path="url(#clipPath3085)"><text
   transform="matrix(1,0,0,-0.4962963,339.1057,509.7656)"
   style="font-variant:normal;font-weight:normal;font-size:8.10000038px;font-family:Arial;-inkscape-font-specification:Arial;writing-mode:lr-tb;fill:#000000;fill-opacity:1;fill-rule:nonzero;stroke:none"
   id="text3089"><tspan
     x="0"
     y="0"
     id="tspan3087">1</tspan></text>

</g></g><g
   id="g3095"><g
     id="g3097"
     clip-path="url(#clipPath3101)"><text
   transform="matrix(1,0,0,-0.4962963,339.1057,513.7856)"
   style="font-variant:normal;font-weight:normal;font-size:8.10000038px;font-family:Arial;-inkscape-font-specification:Arial;writing-mode:lr-tb;fill:#000000;fill-opacity:1;fill-rule:nonzero;stroke:none"
   id="text3105"><tspan
     x="0"
     y="0"
     id="tspan3103">1</tspan></text>

</g></g><g
   id="g3111"><g
     id="g3113"
     clip-path="url(#clipPath3117)"><text
   transform="matrix(1,0,0,-0.4962963,339.1057,517.8055)"
   style="font-variant:normal;font-weight:normal;font-size:8.10000038px;font-family:Arial;-inkscape-font-specification:Arial;writing-mode:lr-tb;fill:#000000;fill-opacity:1;fill-rule:nonzero;stroke:none"
   id="text3121"><tspan
     x="0"
     y="0"
     id="tspan3119">1</tspan></text>

</g></g><path
   d="M 233.806,521.826 H 340.028 V 506.652 H 233.806 Z"
   style="fill:none;stroke:#000000;stroke-width:0.25299999;stroke-linecap:butt;stroke-linejoin:miter;stroke-miterlimit:10;stroke-dasharray:none;stroke-opacity:1"
   id="path3123"
   inkscape:connector-curvature="0" /><path
   d="m 194.352,506.651 v 15.175 h 21.244 l 6.07,-21.245 h 4.552 v -9.104 h -15.174 v 15.174 z"
   style="fill:none;stroke:#000000;stroke-width:0.25299999;stroke-linecap:butt;stroke-linejoin:miter;stroke-miterlimit:10;stroke-dasharray:none;stroke-opacity:1"
   id="path3167"
   inkscape:connector-curvature="0" /><path
   d="m 379.481,506.651 v 15.175 h -21.244 l -6.07,-21.245 h -4.552 v -9.104 h 15.174 v 15.174 z M 203.457,521.826 V 537 h -75.873 m 182.094,-15.174 v 30.349 h -30.349 v 6.069 -12.139 m -3.035,9.105 v -6.07 m -3.035,9.104 v -12.139 m -3.034,9.105 v -6.07 m -3.035,9.104 v -12.139 m -3.035,9.105 v -6.07 3.035 H 150.346 v -45.524 h 6.07 -12.14 m 3.035,-3.035 h 6.07 m -4.553,-3.035 h 3.035 m 218.514,21.245 V 537 H 415.9"
   style="fill:none;stroke:#000000;stroke-width:0.25299999;stroke-linecap:butt;stroke-linejoin:miter;stroke-miterlimit:10;stroke-dasharray:none;stroke-opacity:1"
   id="path3211"
   inkscape:connector-curvature="0" /><g
   id="g3213"><g
     id="g3215"
     clip-path="url(#clipPath3219)"><path
       d="m 259.602,543.07 24.28,18.209"
       style="fill:none;stroke:#000000;stroke-width:0.25299999;stroke-linecap:butt;stroke-linejoin:miter;stroke-miterlimit:10;stroke-dasharray:none;stroke-opacity:1"
       id="path3221"
       inkscape:connector-curvature="0" /></g></g><path
   d="m 279.296,559.121 3.844,1.619 -2.63,-3.237 z"
   style="fill:#000000;fill-opacity:1;fill-rule:evenodd;stroke:#000000;stroke-width:0.25299999;stroke-linecap:butt;stroke-linejoin:miter;stroke-miterlimit:10;stroke-dasharray:none;stroke-opacity:1"
   id="path3223"
   inkscape:connector-curvature="0" /><path
   d="m 415.9,491.477 h 15.175"
   style="fill:none;stroke:#000000;stroke-width:0.25299999;stroke-linecap:butt;stroke-linejoin:miter;stroke-miterlimit:10;stroke-dasharray:none;stroke-opacity:1"
   id="path3225"
   inkscape:connector-curvature="0" /><g
   id="g3227"><g
     id="g3229"
     clip-path="url(#clipPath3233)"><path
       d="m 423.487,491.477 v -24.28"
       style="fill:none;stroke:#000000;stroke-width:0.25299999;stroke-linecap:butt;stroke-linejoin:miter;stroke-miterlimit:10;stroke-dasharray:none;stroke-opacity:1"
       id="path3235"
       inkscape:connector-curvature="0" /></g></g><path
   d="m 424.499,472.154 -1.012,-4.046 -1.011,4.046 z"
   style="fill:#000000;fill-opacity:1;fill-rule:evenodd;stroke:#000000;stroke-width:0.25299999;stroke-linecap:butt;stroke-linejoin:miter;stroke-miterlimit:10;stroke-dasharray:none;stroke-opacity:1"
   id="path3237"
   inkscape:connector-curvature="0" /><text
   transform="matrix(1,0,0,-1,189.7996,523.343)"
   style="font-variant:normal;font-weight:normal;font-size:9.10470009px;font-family:Times;-inkscape-font-specification:Times-Roman;writing-mode:lr-tb;fill:#000000;fill-opacity:1;fill-rule:nonzero;stroke:none"
   id="text3247"><tspan
     x="0 189.68095"
     y="0"
     sodipodi:role="line"
     id="tspan3239">SD</tspan><tspan
     x="236.7222"
     y="50.075851"
     id="tspan3241">z</tspan><tspan
     sodipodi:role="line"
     id="tspan3243"
     x="0"
     y="0" /><tspan
     x="68.285248 73.347466 75.878571"
     y="27.3141"
     sodipodi:role="line"
     id="tspan3245">SiO</tspan></text>

<text
   transform="matrix(1,0,0,-1,273.2595,492.994)"
   style="font-variant:normal;font-weight:normal;font-size:6.0697999px;font-family:Times;-inkscape-font-specification:Times-Roman;writing-mode:lr-tb;fill:#000000;fill-opacity:1;fill-rule:nonzero;stroke:none"
   id="text3251"><tspan
     x="0"
     y="0"
     id="tspan3249">2</tspan></text>

<text
   transform="matrix(1,0,0,-1,282.3642,508.1685)"
   style="font-variant:normal;font-weight:normal;font-size:9.10470009px;font-family:Times;-inkscape-font-specification:Times-Roman;writing-mode:lr-tb;fill:#000000;fill-opacity:1;fill-rule:nonzero;stroke:none"
   id="text3261"><tspan
     x="0 6.5735936"
     y="0"
     sodipodi:role="line"
     id="tspan3253">Al</tspan><tspan
     x="31.866449"
     y="-33.384205"
     id="tspan3255">+</tspan><tspan
     x="39.453396"
     y="-31.866449"
     id="tspan3257">V</tspan><tspan
     x="45.523499"
     y="-27.3141"
     id="tspan3259">G</tspan></text>

<text
   transform="matrix(1,0,0,-1,241.393,523.343)"
   style="font-variant:normal;font-weight:normal;font-size:10.11639977px;font-family:Times;-inkscape-font-specification:Times-Roman;writing-mode:lr-tb;fill:#000000;fill-opacity:1;fill-rule:nonzero;stroke:none"
   id="text3267"><tspan
     x="0 5.7056494 8.2347498 13.940399 16.4695 22.175148 24.704248 30.409899 32.938999 38.64465 41.173748 46.879398 49.408497 55.114147 57.643246 63.348896 65.877998 71.583649 74.112747 79.818398 82.347496 88.053146 90.582245 96.287895 98.816994 104.52264"
     y="0"
     sodipodi:role="line"
     id="tspan3263">+ + + + + + + + + + + + + </tspan><tspan
     x="-4.5523801 -1.1836188 1.3454812 4.7142425 7.2433424 10.612103 13.141204 16.509964 19.039064 22.407825 24.936926 28.305687 30.834787 34.203548 36.732647 40.10141 42.630508 45.999271 48.52837 51.897133 54.426231 57.794994 60.324093 63.692856 66.221954"
     y="39.45396"
     sodipodi:role="line"
     id="tspan3265">- - - - - - - - - - - - -</tspan></text>

<text
   transform="matrix(1,0,0,-1,215.5963,479.3369)"
   style="font-variant:normal;font-weight:normal;font-size:9.10470009px;font-family:Times;-inkscape-font-specification:Times-Roman;writing-mode:lr-tb;fill:#000000;fill-opacity:1;fill-rule:nonzero;stroke:none"
   id="text3271"><tspan
     x="0 135.05275"
     y="0"
     sodipodi:role="line"
     id="tspan3269">nn</tspan></text>

<text
   transform="matrix(1,0,0,-1,221.6661,483.8893)"
   style="font-variant:normal;font-weight:normal;font-size:7.08139992px;font-family:Times;-inkscape-font-specification:Times-Roman;writing-mode:lr-tb;fill:#000000;fill-opacity:1;fill-rule:nonzero;stroke:none"
   id="text3275"><tspan
     x="0 135.05222"
     y="0"
     sodipodi:role="line"
     id="tspan3273">++</tspan></text>

<text
   transform="translate(372.23996,202.05001)"
   style="font-variant:normal;font-weight:normal;font-size:0px;font-family:Arial;-inkscape-font-specification:Arial;writing-mode:lr-tb;fill:#000000;fill-opacity:1;fill-rule:nonzero;stroke:none"
   id="text3345"><tspan
     x="0"
     y="0"
     id="tspan3343" /></text>

<path
   style="fill:#b6b6b6;fill-opacity:0.18974358;stroke:none;stroke-width:0.75px;stroke-linecap:butt;stroke-linejoin:miter;stroke-opacity:1"
   d="m 194.352,506.651 v 15.175 h 21.244 l 6.07,-21.245 h 4.552 v -9.105 l -15.174,7.5e-4 v 15.174 z"
   id="path3922"
   inkscape:connector-curvature="0" /><path
   style="fill:#b6b6b6;fill-opacity:0.18974358;stroke:none;stroke-width:0.75px;stroke-linecap:butt;stroke-linejoin:miter;stroke-opacity:1"
   d="M 233.806,521.826 H 340.028 V 506.652 H 233.806 Z"
   id="path3924"
   inkscape:connector-curvature="0" /><path
   style="fill:#b6b6b6;fill-opacity:0.18974358;stroke:none;stroke-width:0.75px;stroke-linecap:butt;stroke-linejoin:miter;stroke-opacity:1"
   d="m 347.615,500.581 h 4.552 l 6.07,21.245 h 21.244 v -15.175 h -16.692 v -15.174 h -15.174 z"
   id="path3926"
   inkscape:connector-curvature="0" /><text
   xml:space="preserve"
   style="font-style:normal;font-weight:normal;font-size:11.00000095px;line-height:1.25;font-family:sans-serif;letter-spacing:0px;word-spacing:0px;fill:#000000;fill-opacity:1;stroke:none;stroke-width:0.75"
   x="279.42102"
   y="-453.24347"
   id="text5410"
   transform="scale(1,-1)"><tspan
     sodipodi:role="line"
     id="tspan5408"
     x="279.42102"
     y="-453.24347"
     style="font-size:8px;stroke-width:0.75">p-Si</tspan></text>

</g></svg>